<?xml version="1.0" standalone="no"?>
<!DOCTYPE svg PUBLIC "-//W3C//DTD SVG 1.1//EN" "http://www.w3.org/Graphics/SVG/1.1/DTD/svg11.dtd" >
<!--
2013-9-30: Created.
-->
<svg>
<metadata>
Created by iconfont
</metadata>
<defs>

<font id="iconfont" horiz-adv-x="1024" >
  <font-face
    font-family="iconfont"
    font-weight="500"
    font-stretch="normal"
    units-per-em="1024"
    ascent="896"
    descent="-128"
  />
    <missing-glyph />
    
    <glyph glyph-name="admin" unicode="&#58883;" d="M512 384a213.333333 213.333333 0 1 1 0 426.666667 213.333333 213.333333 0 0 1 0-426.666667z m0-85.333333a298.666667 298.666667 0 1 0 0 597.333333 298.666667 298.666667 0 0 0 0-597.333333z m426.410667-341.333334c-7.765333 180.48-199.296 341.333333-426.410667 341.333334-227.114667 0-418.645333-160.853333-426.410667-341.333334h852.821334zM1.877333-89.770667A342.954667 342.954667 0 0 0 0-54.058667C0 181.162667 235.562667 384 512 384s512-202.837333 512-438.058667c0-11.946667-0.64-23.893333-1.877333-35.712l-3.968-38.229333H5.845333l-3.968 38.229333z"  horiz-adv-x="1024" />

    
    <glyph glyph-name="yes_black" unicode="&#58884;" d="M512-128C229.248-128 0 101.248 0 384S229.248 896 512 896s512-229.248 512-512-229.248-512-512-512z m250.794667 759.338667l-343.978667-363.221334-112.128 165.546667a27.733333 27.733333 0 1 1-45.909333-31.061333l131.498666-194.133334a27.733333 27.733333 0 0 1 43.093334-3.541333l367.701333 388.266667a27.733333 27.733333 0 0 1-40.277333 38.144z"  horiz-adv-x="1024" />

    
    <glyph glyph-name="start" unicode="&#58885;" d="M512-128C229.248-128 0 101.248 0 384S229.248 896 512 896s512-229.248 512-512-229.248-512-512-512z m-128 267.136l341.333333 261.12L384 661.333333v-522.197333z"  horiz-adv-x="1024" />

    
    <glyph glyph-name="fujian" unicode="&#58886;" d="M630.107378 476.851889a41.552105 41.552105 0 0 0 60.749689-0.042661 46.756783 46.756783 0 0 0 0.042661-63.863964l-215.439557-226.190204c-67.319529-70.732433-176.532453-70.64711-243.937304 0.127984-67.404852 70.817755-67.490174 185.491326-0.170645 256.223758l237.538109 249.397951c126.746718 133.103251 332.331515 133.188574 459.462185 0.127984 126.960024-132.847283 127.386637-348.457486 1.066532-481.560737l-0.426613-0.426613-196.625924-206.480684c-166.720354-175.081969-436.766374-176.361808-605.363826-2.858307C-39.845653 172.890138-42.661298 453.772127 120.518168 628.683451l2.986291 3.199597L362.365069 882.688822A41.552105 41.552105 0 0 0 423.200081 882.64616a46.756783 46.756783 0 0 0 0-63.863963L184.424793 568.019084l-2.389032-2.559678c-129.988976-139.289139-127.727928-363.04765 5.119355-499.73445 134.937687-138.819865 351.017164-137.795994 484.419044 2.30371l196.668586 206.480685c93.129615 98.120986 92.788324 256.60771-0.469274 354.216761-93.513566 97.90768-244.790531 97.865019-338.048129-0.085323L292.229894 379.242839a94.153486 94.153486 0 0 1 0.085323-128.538493 83.658806 83.658806 0 0 1 122.395265-0.085322l215.439557 226.232865z"  horiz-adv-x="1024" />

    
    <glyph glyph-name="yes" unicode="&#58887;" d="M1169.52065 876.018822a63.99916 63.99916 0 1 0 92.92678-88.062844l-848.564862-895.98824a63.99916 63.99916 0 0 0-99.454695 8.127893l-303.356018 447.99412a63.99916 63.99916 0 0 0 105.91861 71.807058l258.748603-382.074985L1169.52065 876.018822z"  horiz-adv-x="1280" />

    
    <glyph glyph-name="kuaitui" unicode="&#58888;" d="M424.638222 813.59223l491.157903-452.723019-488.496633-404.564262c-18.270644-15.097591-22.26255-44.115673-8.956198-64.842875 13.306351-20.676023 38.895489-25.230889 57.166133-10.133298l531.384027 440.133163c21.64841 17.912396 22.518441 54.248971 1.688883 73.440825L476.225923 885.600063c-17.554148 16.172335-43.29682 13.152817-57.524381-6.755533-14.22756-19.908349-11.56629-49.131144 5.93668-65.2523z m-409.426199 0l491.157904-452.723019L17.873293-43.643873c-18.270644-15.097591-22.26255-44.115673-8.956198-64.842874 13.306351-20.676023 38.895489-25.230889 57.166133-10.133299l531.384028 440.133164c21.64841 17.912396 22.518441 54.248971 1.688883 73.440824L66.799724 885.600063C49.245576 901.772398 23.502904 898.752879 9.275343 878.84453c-14.22756-19.908349-11.56629-49.131144 5.93668-65.2523z"  horiz-adv-x="1024" />

    
    <glyph glyph-name="up" unicode="&#58889;" d="M120.920064-102.741333a67.9936 67.9936 0 0 0-95.778133-9.966934 68.266667 68.266667 0 0 0-9.898667 95.914667L735.251797 870.741333a67.9936 67.9936 0 0 0 107.861334-2.730666l645.666133-886.101334a68.266667 68.266667 0 0 0-14.813867-95.300266 67.9936 67.9936 0 0 0-95.163733 14.882133L785.154731 716.117333l-664.234667-818.926933z"  horiz-adv-x="1501" />

    
    <glyph glyph-name="right" unicode="&#58890;" d="M180.135284-45.555589a46.358662 46.358662 0 0 1-6.795547-65.302412 46.544841 46.544841 0 0 1 65.395501-6.749001L843.864716 373.301436a46.358662 46.358662 0 0 1-1.861793 73.540848L237.850887 887.016846A46.544841 46.544841 0 0 1 172.920833 876.96316a46.358662 46.358662 0 0 1 10.146776-64.883508l555.373042-404.753938-558.351912-452.881303z"  horiz-adv-x="1024" />

    
    <glyph glyph-name="kuaijin" unicode="&#58891;" d="M599.047994 813.602113l-491.163058-452.727771 488.50176-404.568509c18.270836-15.09775 22.262783-44.116136 8.956292-64.843554-13.306491-20.67624-38.895897-25.231154-57.166733-10.133405l-531.389605 440.137783c-21.648637 17.912584-22.518677 54.249541-1.6889 73.441595L547.459752 885.610701c17.554333 16.172505 43.297275 13.152955 57.524984-6.755603 14.22771-19.908558 11.566412-49.131659-5.936742-65.252985z m409.430496 0l-491.163059-452.727771 488.501761-404.568509c18.270836-15.09775 22.262783-44.116136 8.956292-64.843554-13.306491-20.67624-38.895897-25.231154-57.166733-10.133405l-531.389605 440.137783c-21.648637 17.912584-22.518677 54.249541-1.688901 73.441595L956.890247 885.610701c17.554333 16.172505 43.297275 13.152955 57.524985-6.755603 14.22771-19.908558 11.566412-49.131659-5.936742-65.252985z"  horiz-adv-x="1024" />

    
    <glyph glyph-name="down_black" unicode="&#58892;" d="M1024 384c0-282.752-229.248-512-512-512S0 101.248 0 384 229.248 896 512 896s512-229.248 512-512z m-258.005333 155.562667l-245.333334-302.464-219.221333 300.8a25.130667 25.130667 0 1 1-40.618667-29.653334l238.506667-327.253333c9.728-13.312 29.44-13.824 39.808-1.024l265.898667 327.808a25.173333 25.173333 0 0 1-39.04 31.786667z"  horiz-adv-x="1024" />

    
    <glyph glyph-name="up_black" unicode="&#58893;" d="M1024 384c0 282.752-229.248 512-512 512S0 666.752 0 384s229.248-512 512-512 512 229.248 512 512z m-258.005333-155.562667l-245.333334 302.464-219.221333-300.8a25.130667 25.130667 0 1 0-40.618667 29.653334l238.506667 327.253333a25.130667 25.130667 0 0 0 39.808 1.024l265.898667-327.808a25.173333 25.173333 0 0 0-39.04-31.786667z"  horiz-adv-x="1024" />

    
    <glyph glyph-name="right_black" unicode="&#58894;" d="M512-128c282.752 0 512 229.248 512 512S794.752 896 512 896 0 666.752 0 384s229.248-512 512-512z m-155.562667 258.005333l302.464 245.333334-300.8 219.221333a25.130667 25.130667 0 1 0 29.653334 40.618667l327.253333-238.506667c13.312-9.728 13.824-29.44 1.024-39.808l-327.808-265.898667a25.173333 25.173333 0 0 0-31.786667 39.04z"  horiz-adv-x="1024" />

    
    <glyph glyph-name="left_black" unicode="&#58895;" d="M512-128C229.248-128 0 101.248 0 384S229.248 896 512 896s512-229.248 512-512-229.248-512-512-512z m155.562667 258.005333l-302.464 245.333334 300.8 219.221333a25.130667 25.130667 0 1 1-29.653334 40.618667l-327.253333-238.506667a25.130667 25.130667 0 0 1-1.024-39.808l327.808-265.898667a25.173333 25.173333 0 0 1 31.786667 39.04z"  horiz-adv-x="1024" />

    
    <glyph glyph-name="left" unicode="&#58896;" d="M843.864716-45.555589a46.358662 46.358662 0 0 0 6.795547-65.302412 46.544841 46.544841 0 0 0-65.395501-6.749001L180.135284 373.301436a46.358662 46.358662 0 0 0 1.861793 73.540848L786.149113 887.016846a46.544841 46.544841 0 0 0 64.976599-10.100231 46.358662 46.358662 0 0 0-10.146776-64.883508L285.559349 407.325714l558.351912-452.881303z"  horiz-adv-x="1024" />

    
    <glyph glyph-name="delect_object" unicode="&#58897;" d="M512-128C229.248-128 0 101.248 0 384S229.248 896 512 896s512-229.248 512-512-229.248-512-512-512z m21.205333 534.101333l-224.213333 223.146667a31.317333 31.317333 0 0 1-44.16 0.597333 30.976 30.976 0 0 1 0.597333-43.946666l224.469334-223.36-223.146667-224.213334a31.317333 31.317333 0 0 1-0.597333-44.16 30.976 30.976 0 0 1 43.946666 0.597334l223.36 224.469333 224.213334-223.146667a31.317333 31.317333 0 0 1 44.16-0.597333 30.976 30.976 0 0 1-0.597334 43.946667l-224.469333 223.36 223.146667 224.213333a31.317333 31.317333 0 0 1 0.597333 44.16 30.976 30.976 0 0 1-43.946667-0.597333l-223.36-224.469334z"  horiz-adv-x="1024" />

    
    <glyph glyph-name="fenzu" unicode="&#58898;" d="M511.752014 464.293918L924.005727 878.481492a57.162663 57.162663 0 0 0 81.051537 1.137566c22.068769-22.182526 21.613743-58.698376-1.137566-81.506563l-411.798686-413.903183 414.244452-412.253713c22.808187-22.69443 23.320091-58.982768 1.137565-81.051537-22.182526-22.068769-58.698376-21.613743-81.506563 1.137566l-413.903182 411.798686-412.253713-414.244452a57.162663 57.162663 0 0 0-81.051537-1.137565c-22.068769 22.182526-21.613743 58.698376 1.137566 81.506563l411.798686 413.903182L17.536712 796.178633A57.162663 57.162663 0 0 0 16.342268 877.23017c22.182526 22.068769 58.698376 21.613743 81.506564-1.137565l413.903182-411.798687z"  horiz-adv-x="1024" />

    
    <glyph glyph-name="shangchuan" unicode="&#58899;" d="M938.658062-42.667449v255.997653a42.666276 42.666276 0 1 0 85.332551 0v-298.663928a42.666276 42.666276 0 0 0-42.666275-42.666276H42.666276a42.666276 42.666276 0 0 0-42.666276 42.666276v298.663928a42.666276 42.666276 0 1 0 85.332551 0v-255.997653h853.325511z m-384.124479 124.585525a42.666276 42.666276 0 1 0-85.332551 0V597.241352a42.666276 42.666276 0 1 0 85.332551 0V81.918076zM240.509795 574.841557a42.666276 42.666276 0 1 0-54.612832 65.578066l294.397301 245.672414A42.666276 42.666276 0 0 0 534.18177 886.732032l309.159833-245.672415a42.666276 42.666276 0 0 0-53.076847-66.858054L508.283341 798.284842 240.509795 574.841557z"  horiz-adv-x="1024" />

    
    <glyph glyph-name="password" unicode="&#58900;" d="M872.96 384H111.701333a18.602667 18.602667 0 0 1-18.602666-18.602667v-381.696c0-10.24 8.32-18.602667 18.602666-18.602666h800.597334a18.602667 18.602667 0 0 1 18.602666 18.602666v381.696a18.602667 18.602667 0 0 1-18.602666 18.602667h-39.338667zM139.861333 477.098667a450.133333 450.133333 0 0 0-0.213333 13.568C139.648 712.874667 304.128 896 512 896s372.352-183.125333 372.352-405.333333c0-4.522667-0.042667-9.045333-0.213333-13.568h28.16A111.701333 111.701333 0 0 0 1024 365.397333v-381.696A111.701333 111.701333 0 0 0 912.298667-128H111.701333A111.701333 111.701333 0 0 0 0-16.298667v381.696a111.701333 111.701333 0 0 0 111.701333 111.701334h28.16z m93.44 0h557.354667c0.426667 6.741333 0.597333 13.525333 0.597333 20.352 0 170.24-127.232 305.493333-279.253333 305.493333-152.021333 0-279.253333-135.253333-279.253333-305.493333 0-6.826667 0.170667-13.610667 0.597333-20.352z"  horiz-adv-x="1024" />

    
    <glyph glyph-name="bianji" unicode="&#58901;" d="M48.768-128A48.853333 48.853333 0 0 0 0-79.061333c0 27.050667 21.845333 48.938667 48.768 48.938666h926.464c26.922667 0 48.768-21.888 48.768-48.938666 0-27.008-21.845333-48.938667-48.768-48.938667H48.768zM542.08 737.28l84.48-49.450667 33.450667 57.941334a4.864 4.864 0 0 1-1.792 6.698666l-76.330667 44.032a4.864 4.864 0 0 1-6.656-1.749333l-33.152-57.472z m-48.938667-84.693333L239.957333 214.016a4.864 4.864 0 0 1-0.597333-1.834667l-13.824-112.042666a4.864 4.864 0 0 1 7.808-4.522667l90.112 68.010667a4.864 4.864 0 0 1 1.28 1.450666L577.706667 603.136l-84.48 49.450667z m251.648 44.245333l-335.274666-580.693333c-6.826667-11.861333-16-22.186667-26.88-30.464l-90.154667-67.968a102.954667 102.954667 0 0 0-164.010667 94.72l13.824 112.042666c1.664 13.568 6.058667 26.666667 12.885334 38.485334l335.274666 580.693333A102.570667 102.570667 0 0 0 630.613333 880.981333l76.288-44.032a102.570667 102.570667 0 0 0 37.845334-140.074666z"  horiz-adv-x="1024" />

    
    <glyph glyph-name="search" unicode="&#58902;" d="M863.485364 96.389997c2.474648-1.663988 4.863964-3.583973 7.039947-5.802623l139.774952-139.134957a46.506318 46.506318 0 0 0 0.213331-65.706173 46.335652 46.335652 0 0 0-65.620841-0.213332l-139.774951 139.134956a46.634317 46.634317 0 0 0-6.229287 7.679943 486.951015 486.951015 0 0 0-310.525671-111.231166C218.668867-78.883355 0.00384 139.355008 0.00384 408.579656 0.00384 677.804303 218.668867 896 488.362844 896c269.736644 0 488.40167-218.238363 488.40167-487.420344 0-118.783109-42.581014-227.624959-113.27915-312.189659z m-375.12252-82.431382c218.366362 0 395.389035 176.681342 395.389035 394.621041 0 217.897032-177.022672 394.578374-395.389035 394.578374-218.323696 0-395.346368-176.638675-395.346368-394.578374s177.022672-394.62104 395.346368-394.621041z"  horiz-adv-x="1024" />

    
    <glyph glyph-name="fankui" unicode="&#58903;" d="M165.802667 798.464a19.498667 19.498667 0 0 1-19.498667-19.498667v-789.930666c0-10.794667 8.704-19.498667 19.498667-19.498667h692.394666a19.498667 19.498667 0 0 1 19.498667 19.498667V778.965333a19.498667 19.498667 0 0 1-19.498667 19.498667H165.802667z m0 97.536h692.394666a117.034667 117.034667 0 0 0 117.034667-117.034667v-789.930666A117.034667 117.034667 0 0 0 858.197333-128H165.802667a117.034667 117.034667 0 0 0-117.034667 117.034667V778.965333A117.034667 117.034667 0 0 0 165.802667 896z m77.994666-341.333333a48.768 48.768 0 1 0 0 97.536h480.341334a48.768 48.768 0 0 0 0-97.536H243.797333z m0-195.029334a48.768 48.768 0 0 0 0 97.493334h292.565334a48.768 48.768 0 0 0 0-97.493334H243.797333z"  horiz-adv-x="1024" />

    
    <glyph glyph-name="gouwuche" unicode="&#58905;" d="M146.517333 603.136c-26.965333 0-48.853333-21.76-48.853333-48.64v-389.290667c0-26.88 21.888-48.64 48.853333-48.64h537.216c26.965333 0 48.853333 21.76 48.853334 48.64V554.496c0 26.88-21.888 48.64-48.853334 48.64H146.517333z m0 97.322667h537.216a146.261333 146.261333 0 0 0 146.517334-145.962667v-389.290667a146.261333 146.261333 0 0 0-146.517334-145.92H146.517333A146.261333 146.261333 0 0 0 0 165.162667V554.496a146.261333 146.261333 0 0 0 146.517333 145.962667z m699.008 143.189333A48.725333 48.725333 0 0 0 894.208 896h80.938667C1002.154667 896 1024 874.24 1024 847.36c0-26.88-21.845333-48.64-48.853333-48.64h-28.245334l66.56-874.368A48.725333 48.725333 0 0 0 964.778667-128H183.722667c-26.965333 0-48.810667 21.76-48.810667 48.64 0 26.88 21.845333 48.64 48.810667 48.64h728.362666l-66.56 874.368z"  horiz-adv-x="1024" />

    
    <glyph glyph-name="home-prs" unicode="&#58906;" d="M143.273508 680.175836l298.660693 194.982767a128.168103 128.168103 0 0 0 140.114531 0l298.660694-194.982767A127.741445 127.741445 0 0 0 938.6496 573.212642v-573.428531A127.912108 127.912108 0 0 0 810.65216-128H213.330773c-70.697253 0-127.99744 57.214856-127.99744 127.826777V573.212642c0 43.092471 21.759565 83.368999 57.940175 106.963194z"  horiz-adv-x="1024" />

    
    <glyph glyph-name="home-nor" unicode="&#58907;" d="M208.978438 608.8846169999999a42.575745 42.575745 0 0 1-19.282802-35.621991v-573.364746a42.661067 42.661067 0 0 1 42.661067-42.575745h597.254944a42.661067 42.661067 0 0 1 42.661067 42.575745V573.262626a42.575745 42.575745 0 0 1-19.325463 35.621991l-298.627472 194.961078a42.703728 42.703728 0 0 1-46.713869 0l-298.627472-194.961078zM162.307231 680.213922l298.627471 194.961078a128.153846 128.153846 0 0 0 140.056285 0l298.627471-194.961078a127.727236 127.727236 0 0 0 57.976391-106.951296v-573.364746a127.89788 127.89788 0 0 0-127.983202-127.769897h-597.254944c-70.689389 0-127.983202 57.208491-127.983202 127.769897V573.262626c0 43.087678 21.757144 83.317065 57.93373 106.951296z"  horiz-adv-x="1024" />

    
    <glyph glyph-name="geren-prs" unicode="&#58908;" d="M382.506667 282.19733299999996c-114.005333 49.194667-193.706667 162.218667-193.706667 293.802667 0 176.725333 143.829333 320 321.28 320 177.493333 0 321.365333-143.274667 321.365333-320a320 320 0 0 0-187.477333-290.986667C835.882667 234.794667 979.285333 67.11466700000005 1024-128H0c43.434667 209.365333 192.170667 360.106667 382.506667 410.197333z"  horiz-adv-x="1024" />

    
    <glyph glyph-name="shuaxin" unicode="&#58909;" d="M511.985422 810.658845a39.125007 39.125007 0 0 0 0-78.207349A391.122074 391.122074 0 1 1 903.107496 341.329422 39.125007 39.125007 0 1 0 981.314845 341.329422c0-259.19784-210.131582-469.329422-469.329423-469.329422S42.656 82.131582 42.656 341.329422 252.787582 810.658845 511.985422 810.658845z m57.343522 10.453246a42.666311 42.666311 0 0 0 55.978201 64.42613l89.599253-77.823352a42.666311 42.666311 0 0 0 0-64.42613l-89.599253-77.866018a42.666311 42.666311 0 0 0-55.978201 64.42613l52.522229 45.652953-52.479562 45.610287z"  horiz-adv-x="1024" />

    
    <glyph glyph-name="kucun-prs" unicode="&#58910;" d="M567.891773 881.138335l347.296971-200.527735a110.930237 110.930237 0 0 0 55.465119-96.082651v-401.055471a110.930237 110.930237 0 0 0-55.465119-96.082651l-347.296971-200.527735a110.930237 110.930237 0 0 0-110.972902 0l-347.296971 200.527735a110.930237 110.930237 0 0 0-55.465119 96.082651V584.527949a110.930237 110.930237 0 0 0 55.465119 96.082651l347.296971 200.527735a110.930237 110.930237 0 0 0 110.930237 0z m-13.354294-526.662631l279.672193 163.323441a42.665476 42.665476 0 0 1-43.049465 73.683276l-278.008239-162.3848L235.101063 591.482421a42.665476 42.665476 0 0 1-43.006799-73.683276l277.112264-161.830149v-293.709134a42.665476 42.665476 0 0 1 85.330951 0v292.215842z"  horiz-adv-x="1024" />

    
    <glyph glyph-name="geren-nor" unicode="&#58911;" d="M387.925333 284.544c-107.093333 50.346667-181.546667 161.877333-181.546666 291.456 0 176.725333 138.581333 320 309.504 320 170.965333 0 309.546667-143.274667 309.546666-320 0-131.626667-76.842667-244.693333-186.709333-293.802667 175.274667-45.141333 318.165333-179.114667 369.322667-355.242666L1024-128H0l15.36 54.613333a509.994667 509.994667 0 0 0 372.565333 357.930667z m128 56.789333c125.354667 0 226.986667 105.045333 226.986667 234.666667S641.28 810.666667 515.882667 810.666667c-125.397333 0-226.986667-105.045333-226.986667-234.666667s101.589333-234.666667 226.986667-234.666667z m392.832-384c-68.565333 152.32-224.725333 256-400.426666 256-174.976 0-327.552-103.082667-394.24-256H908.8z"  horiz-adv-x="1024" />

    
    <glyph glyph-name="zijin-prs" unicode="&#58912;" d="M213.333333 896h597.333334a128 128 0 0 0 128-128v-768a128 128 0 0 0-128-128H213.333333a128 128 0 0 0-128 128V768a128 128 0 0 0 128 128z m256-213.333333a42.666667 42.666667 0 0 1-42.666666-42.666667v-85.333333a42.666667 42.666667 0 0 1 42.666666-42.666667h426.666667V682.666667H469.333333z"  horiz-adv-x="1024" />

    
    <glyph glyph-name="ad_message" unicode="&#58913;" d="M120.469809 896h1084.228278a120.469809 120.469809 0 0 0 120.469809-120.469809v-559.220852a120.469809 120.469809 0 0 0-120.469809-120.469809h-45.959232l0.602349-193.655217a30.117452 30.117452 0 0 0-45.597822-25.901009l-365.806575 219.556226H120.469809a120.469809 120.469809 0 0 0-120.469809 120.469809V775.530191a120.469809 120.469809 0 0 0 120.469809 120.469809z m210.822165-477.662792c49.874501 0 90.352357 40.056211 90.352357 89.509068 0 49.513091-40.477856 89.569303-90.352357 89.569303S240.939617 557.359368 240.939617 507.846276c0-49.452856 40.477856-89.569303 90.352357-89.569302z m361.409426 0c49.874501 0 90.352357 40.056211 90.352357 89.509068 0 49.513091-40.477856 89.569303-90.352357 89.569303S602.349044 557.359368 602.349044 507.846276c0-49.452856 40.477856-89.569303 90.352356-89.569302z m301.174522 0c49.874501 0 90.352357 40.056211 90.352357 89.509068 0 49.513091-40.477856 89.569303-90.352357 89.569303S903.523565 557.359368 903.523565 507.846276c0-49.452856 40.477856-89.569303 90.352357-89.569302z"  horiz-adv-x="1325" />

    
    <glyph glyph-name="kucun-nor" unicode="&#58914;" d="M530.85814 817.054791a36.990967 36.990967 0 0 1-36.948302 0l-347.296971-200.527736a36.990967 36.990967 0 0 1-18.516816-31.999106v-401.055471c0-13.226297 7.039803-25.428623 18.474151-31.999107l347.296971-200.527735a36.990967 36.990967 0 0 1 36.990967 0l347.296972 200.527735a36.990967 36.990967 0 0 1 18.516816 31.999107V584.527949a36.990967 36.990967 0 0 1-18.474151 31.999106l-347.296971 200.527736zM567.891773 881.138335l347.296971-200.527735a110.930237 110.930237 0 0 0 55.465119-96.082651v-401.055471a110.930237 110.930237 0 0 0-55.465119-96.082651l-347.296971-200.527735a110.930237 110.930237 0 0 0-110.930237 0l-347.296971 200.527735a110.930237 110.930237 0 0 0-55.465118 96.082651V584.527949a110.930237 110.930237 0 0 0 55.465118 96.082651l347.296971 200.527735a110.930237 110.930237 0 0 0 110.930237 0z m-13.311628-526.662631v-292.215842a42.665476 42.665476 0 1 0-85.330952 0v293.709134L192.094264 517.799145A42.665476 42.665476 0 0 0 235.101063 591.4824209999999l278.050905-162.3848 278.008239 162.3848a42.665476 42.665476 0 1 0 43.09213-73.683276l-279.714858-163.323441z"  horiz-adv-x="1024" />

    
    <glyph glyph-name="tip_object" unicode="&#58915;" d="M512-128C229.248-128 0 101.248 0 384S229.248 896 512 896s512-229.248 512-512-229.248-512-512-512z m0 256a42.666667 42.666667 0 1 1 0 85.333333 42.666667 42.666667 0 0 1 0-85.333333zM469.333333 640v-339.413333a42.666667 42.666667 0 1 1 85.333334 0V640a42.666667 42.666667 0 1 1-85.333334 0z"  horiz-adv-x="1024" />

    
    <glyph glyph-name="question_prs" unicode="&#58916;" d="M512-128C229.248-128 0 101.248 0 384S229.248 896 512 896s512-229.248 512-512-229.248-512-512-512z m64 412.885333v76.373334a149.418667 149.418667 0 0 1-42.666667 292.48 149.333333 149.333333 0 0 1-149.333333-149.333334 42.666667 42.666667 0 1 1 85.333333 0 64 64 0 1 0 64-64 42.666667 42.666667 0 0 1-42.666666-42.666666v-112.853334a42.666667 42.666667 0 1 1 85.333333 0z m-41.770667-171.093333a42.666667 42.666667 0 1 1 0 85.333333 42.666667 42.666667 0 0 1 0-85.333333z"  horiz-adv-x="1024" />

    
    <glyph glyph-name="zijin-nor" unicode="&#58917;" d="M853.333333 469.418667a91.093333 91.093333 0 0 0-4.266666-0.085334H473.6A89.6 89.6 0 0 0 384 558.933333V635.733333C384 685.226667 424.106667 725.333333 473.6 725.333333h375.466667c1.450667 0 2.858667 0 4.266666-0.085333V768a42.666667 42.666667 0 0 1-42.666666 42.666667H213.333333a42.666667 42.666667 0 0 1-42.666666-42.666667v-768a42.666667 42.666667 0 0 1 42.666666-42.666667h597.333334a42.666667 42.666667 0 0 1 42.666666 42.666667V469.418667zM213.333333 896h597.333334a128 128 0 0 0 128-128v-768a128 128 0 0 0-128-128H213.333333a128 128 0 0 0-128 128V768a128 128 0 0 0 128 128z m260.266667-256a4.266667 4.266667 0 0 1-4.266667-4.266667v-76.8a4.266667 4.266667 0 0 1 4.266667-4.266666h375.466667a4.266667 4.266667 0 0 1 4.266666 4.266666V635.733333a4.266667 4.266667 0 0 1-4.266666 4.266667H473.6z"  horiz-adv-x="1024" />

    
    <glyph glyph-name="question_nor" unicode="&#58918;" d="M512-128C229.248-128 0 101.248 0 384S229.248 896 512 896s512-229.248 512-512-229.248-512-512-512z m0 85.333333c235.648 0 426.666667 191.018667 426.666667 426.666667S747.648 810.666667 512 810.666667 85.333333 619.648 85.333333 384s191.018667-426.666667 426.666667-426.666667z m64 327.552a42.666667 42.666667 0 1 0-85.333333 0v112.853334a42.666667 42.666667 0 0 0 42.666666 42.666666 64 64 0 1 1-64 64 42.666667 42.666667 0 1 0-85.333333 0 149.333333 149.333333 0 1 0 192-143.146666v-76.373334z m-41.770667-171.093333a42.666667 42.666667 0 1 0 0 85.333333 42.666667 42.666667 0 0 0 0-85.333333z"  horiz-adv-x="1024" />

    
    <glyph glyph-name="about_nor" unicode="&#58919;" d="M512-128C229.248-128 0 101.248 0 384S229.248 896 512 896s512-229.248 512-512-229.248-512-512-512z m0 85.333333c235.648 0 426.666667 191.018667 426.666667 426.666667S747.648 810.666667 512 810.666667 85.333333 619.648 85.333333 384s191.018667-426.666667 426.666667-426.666667z m0 597.333334a42.666667 42.666667 0 1 0 0 85.333333 42.666667 42.666667 0 0 0 0-85.333333z m-41.941333-89.088a42.666667 42.666667 0 0 0 85.333333 0v-339.413334a42.666667 42.666667 0 0 0-85.333333 0v339.413334z"  horiz-adv-x="1024" />

    
    <glyph glyph-name="add" unicode="&#58920;" d="M469.333333 448V853.333333a42.666667 42.666667 0 1 0 85.333334 0v-405.333333h426.666666a42.666667 42.666667 0 1 0 0-85.333333H554.666667V-85.333333a42.666667 42.666667 0 1 0-85.333334 0V362.666667H42.666667a42.666667 42.666667 0 1 0 0 85.333333h426.666666z"  horiz-adv-x="1024" />

    
    <glyph glyph-name="tip-path" unicode="&#58921;" d="M512-128C229.248-128 0 101.248 0 384S229.248 896 512 896s512-229.248 512-512-229.248-512-512-512z m0 85.333333c235.648 0 426.666667 191.018667 426.666667 426.666667S747.648 810.666667 512 810.666667 85.333333 619.648 85.333333 384s191.018667-426.666667 426.666667-426.666667z m0 170.666667a42.666667 42.666667 0 1 0 0 85.333333 42.666667 42.666667 0 0 0 0-85.333333zM469.333333 640a42.666667 42.666667 0 1 0 85.333334 0v-339.413333a42.666667 42.666667 0 1 0-85.333334 0V640z"  horiz-adv-x="1024" />

    
    <glyph glyph-name="message-prs" unicode="&#58922;" d="M977.621333 100.69333300000005l0.128-0.298666c17.92-35.754667 25.301333-51.456 32.384-70.528 19.157333-51.626667 22.912-89.258667-17.664-128.597334-38.4-37.248-72.832-34.176-124.672-17.109333-19.413333 6.4-36.224 13.397333-72.533333 29.525333l-0.853333 0.341334a970.666667 970.666667 0 0 1-49.578667 21.077333 507.093333 507.093333 0 0 0-235.690667-57.770667C227.968-122.66666699999996 0 105.34400000000005 0 386.645333 0 667.9466669999999 227.925333 896 509.141333 896c281.173333 0 509.098667-228.053333 509.098667-509.354667 0-85.973333-21.376-168.96-61.44-242.773333 4.096-9.386667 10.069333-21.632 20.821333-43.178667zM339.413333 301.781333a127.317333 127.317333 0 1 1-0.042666 254.592 127.317333 127.317333 0 0 1 0.042666-254.592z m339.413334 0a127.317333 127.317333 0 1 1 0 254.592 127.317333 127.317333 0 0 1 0-254.592z"  horiz-adv-x="1024" />

    
    <glyph glyph-name="down" unicode="&#58923;" d="M120.900267 870.741333A67.9936 67.9936 0 0 1 25.122133 880.776533a68.266667 68.266667 0 0 1-9.898666-95.914666L735.232-102.741333a67.9936 67.9936 0 0 1 107.861333 2.730666l645.666134 886.101334a68.266667 68.266667 0 0 1-14.813867 95.300266 67.9936 67.9936 0 0 1-95.163733-14.882133l-593.646934-814.557867L120.900267 870.8096z"  horiz-adv-x="1501" />

    
    <glyph glyph-name="rili" unicode="&#58924;" d="M938.666667 576V682.666667a42.666667 42.666667 0 0 1-42.666667 42.666666h-85.333333v-21.333333a42.666667 42.666667 0 1 0-85.333334 0V725.333333H298.666667v-21.333333a42.666667 42.666667 0 1 0-85.333334 0V725.333333H128a42.666667 42.666667 0 0 1-42.666667-42.666666v-106.666667h853.333334z m0-85.333333H85.333333V0a42.666667 42.666667 0 0 1 42.666667-42.666667h768a42.666667 42.666667 0 0 1 42.666667 42.666667V490.666667zM213.333333 810.666667V853.333333a42.666667 42.666667 0 1 0 85.333334 0v-42.666666h426.666666V853.333333a42.666667 42.666667 0 1 0 85.333334 0v-42.666666h85.333333a128 128 0 0 0 128-128v-682.666667a128 128 0 0 0-128-128H128a128 128 0 0 0-128 128V682.666667a128 128 0 0 0 128 128h85.333333z m74.666667-512c-17.664 0-32 19.114667-32 42.666666s14.336 42.666667 32 42.666667h448c17.664 0 32-19.114667 32-42.666667s-14.336-42.666667-32-42.666666H288z m0-213.333334c-17.664 0-32 19.114667-32 42.666667s14.336 42.666667 32 42.666667h448c17.664 0 32-19.114667 32-42.666667s-14.336-42.666667-32-42.666667H288z"  horiz-adv-x="1024" />

    
    <glyph glyph-name="about_prs" unicode="&#58925;" d="M512-128C229.248-128 0 101.248 0 384S229.248 896 512 896s512-229.248 512-512-229.248-512-512-512z m0 682.666667a42.666667 42.666667 0 1 1 0 85.333333 42.666667 42.666667 0 0 1 0-85.333333z m-41.941333-89.088v-339.413334a42.666667 42.666667 0 0 1 85.333333 0v339.413334a42.666667 42.666667 0 0 1-85.333333 0z"  horiz-adv-x="1024" />

    
    <glyph glyph-name="add_object" unicode="&#58926;" d="M512-128C229.248-128 0 101.248 0 384S229.248 896 512 896s512-229.248 512-512-229.248-512-512-512z m-24.874667 549.333333H238.208a24.874667 24.874667 0 1 1 0-49.792h248.917333v-261.333333a24.874667 24.874667 0 1 1 49.749334 0v261.333333h248.917333a24.874667 24.874667 0 0 1 0 49.792h-248.917333V657.792a24.874667 24.874667 0 1 1-49.749334 0v-236.458667z"  horiz-adv-x="1024" />

    
    <glyph glyph-name="message-nor" unicode="&#58927;" d="M509.141333-37.80266700000004c79.744 0 154.368 22.016 218.069334 60.330667 27.989333 16.810667 182.869333-82.901333 206.208-60.330667 24.362667 23.637333-83.072 169.856-64.938667 198.741334a422.570667 422.570667 0 0 1 64.938667 225.706666c0 234.453333-189.952 424.448-424.277334 424.448-234.325333 0-424.277333-189.994667-424.277333-424.448 0-234.410667 189.952-424.448 424.277333-424.448z m468.48 138.496l0.128-0.298666c17.92-35.754667 25.301333-51.456 32.384-70.528 19.157333-51.626667 22.912-89.258667-17.664-128.597334-38.4-37.248-72.832-34.176-124.672-17.109333-19.413333 6.4-36.224 13.397333-72.533333 29.525333l-0.853333 0.341334a970.666667 970.666667 0 0 1-49.578667 21.077333 507.093333 507.093333 0 0 0-235.690667-57.770667C227.968-122.66666699999996 0 105.34400000000005 0 386.645333 0 667.9466669999999 227.925333 896 509.141333 896c281.173333 0 509.098667-228.053333 509.098667-509.354667 0-85.973333-21.376-168.96-61.44-242.773333 4.096-9.386667 10.069333-21.632 20.821333-43.178667zM339.413333 386.645333a42.453333 42.453333 0 1 1 0 84.906667 42.453333 42.453333 0 0 1 0-84.906667z m0-84.906666a127.317333 127.317333 0 1 0 0.042667 254.634666 127.317333 127.317333 0 0 0 0-254.592z m339.413334 84.906666a42.453333 42.453333 0 1 1 0 84.906667 42.453333 42.453333 0 0 1 0-84.906667z m0-84.906666a127.317333 127.317333 0 1 0 0.085333 254.634666 127.317333 127.317333 0 0 0-0.085333-254.592z"  horiz-adv-x="1024" />

    
    <glyph glyph-name="gouwuche_shanchu" unicode="&#58928;" d="M227.541333 865.834667L30.165333 668.458667 314.624 384 30.165333 99.541333l197.376-197.376L512 186.624l284.458667-284.458667 197.376 197.376L709.376 384l284.458667 284.458667L796.458667 865.834667 512 581.376 227.541333 865.834667z"  horiz-adv-x="1024" />

    
    <glyph glyph-name="shangchuan1" unicode="&#58929;" d="M85.333333 554.666667h853.333334v-85.333334H85.333333v-469.290666a42.666667 42.666667 0 0 1 42.666667-42.666667h768a42.666667 42.666667 0 0 1 42.666667 42.666667V596.181333a42.666667 42.666667 0 0 1-42.666667 42.666667H455.253333a21.333333 21.333333 0 0 0-21.333333 21.333333V789.333333a21.333333 21.333333 0 0 1-21.333333 21.333334H144.810667a21.333333 21.333333 0 0 1-20.693334-16.213334l-37.546666-150.442666A42.666667 42.666667 0 0 1 85.333333 633.6V554.666667z m810.666667 169.557333a128 128 0 0 0 128-128.042667v-596.138666A128 128 0 0 0 896-128H128a128 128 0 0 0-128 128.042667V633.642667c0 10.410667 1.28 20.821333 3.84 30.976l37.461333 150.485333A106.666667 106.666667 0 0 0 144.810667 896H412.586667a106.666667 106.666667 0 0 0 106.666666-106.709333v-65.066667H896z m-405.077333-433.152L412.586667 225.536a42.666667 42.666667 0 1 0-54.741334 65.450667l149.845334 125.44a42.666667 42.666667 0 0 0 55.168-0.298667l146.432-125.44a42.666667 42.666667 0 0 0-55.466667-64.853333l-77.610667 66.474666v-207.146666a42.666667 42.666667 0 1 0-85.333333 0V290.56v0.469333z"  horiz-adv-x="1024" />

    
    <glyph glyph-name="fenlei" unicode="&#58930;" d="M128 256a42.666667 42.666667 0 0 1-42.666667-42.666667v-213.333333a42.666667 42.666667 0 0 1 42.666667-42.666667h213.333333a42.666667 42.666667 0 0 1 42.666667 42.666667v256H128z m0 85.333333h341.333333v-341.333333a128 128 0 0 0-128-128H128a128 128 0 0 0-128 128v213.333333a128 128 0 0 0 128 128z m768-85.333333h-256v-256a42.666667 42.666667 0 0 1 42.666667-42.666667h213.333333a42.666667 42.666667 0 0 1 42.666667 42.666667v213.333333a42.666667 42.666667 0 0 1-42.666667 42.666667z m0 85.333333a128 128 0 0 0 128-128v-213.333333a128 128 0 0 0-128-128h-213.333333a128 128 0 0 0-128 128v341.333333h341.333333zM128 512h256V768a42.666667 42.666667 0 0 1-42.666667 42.666667H128a42.666667 42.666667 0 0 1-42.666667-42.666667v-213.333333a42.666667 42.666667 0 0 1 42.666667-42.666667z m0-85.333333a128 128 0 0 0-128 128V768a128 128 0 0 0 128 128h213.333333a128 128 0 0 0 128-128v-341.333333H128z m768 85.333333a42.666667 42.666667 0 0 1 42.666667 42.666667V768a42.666667 42.666667 0 0 1-42.666667 42.666667h-213.333333a42.666667 42.666667 0 0 1-42.666667-42.666667v-256h256z m0-85.333333h-341.333333V768a128 128 0 0 0 128 128h213.333333a128 128 0 0 0 128-128v-213.333333a128 128 0 0 0-128-128z"  horiz-adv-x="1024" />

    
    <glyph glyph-name="qiche" unicode="&#58931;" d="M214.442667 554.666667h84.352v-256.426667h-213.333334v85.333333h128V554.666667A129.109333 129.109333 0 0 1 85.333333 425.557333V42.666667h256V554.666667H214.442667zM426.666667 640v-597.333333h512V768c0 23.552-17.621333 42.666667-39.381334 42.666667H466.048c-21.76 0-39.381333-19.114667-39.381333-42.666667v-128zM341.333333-42.666667H0V425.557333A214.442667 214.442667 0 0 0 214.442667 640H341.333333V768c0 70.698667 53.930667 128 120.490667 128h441.685333C970.069333 896 1024 838.698667 1024 768v-810.666667H341.333333zM213.333333 0m-85.333333 0a85.333333 85.333333 0 1 1 170.666667 0 85.333333 85.333333 0 1 1-170.666667 0ZM213.333333-128a128 128 0 1 0 0 256 128 128 0 0 0 0-256z m0 85.333333a42.666667 42.666667 0 1 1 0 85.333334 42.666667 42.666667 0 0 1 0-85.333334zM810.666667 0m-85.333334 0a85.333333 85.333333 0 1 1 170.666667 0 85.333333 85.333333 0 1 1-170.666667 0ZM810.666667-128a128 128 0 1 0 0 256 128 128 0 0 0 0-256z m0 85.333333a42.666667 42.666667 0 1 1 0 85.333334 42.666667 42.666667 0 0 1 0-85.333334z"  horiz-adv-x="1024" />

    
    <glyph glyph-name="qian" unicode="&#58932;" d="M609.752615 321.220923v-53.090461h238.67077v-192.118154h-238.67077v-197.868308H417.634462V76.012308H188.100923V268.209231h229.533539v53.011692H210.077538v192.196923H307.987692L157.538462 808.723692 328.704 896 512 536.024615 695.296 896 866.461538 808.802462l-150.44923-295.384616h135.640615v-192.196923h-241.821538z"  horiz-adv-x="1024" />

    
    <glyph glyph-name="yinhangqia" unicode="&#58933;" d="M143.36 896h737.28a143.36 143.36 0 0 0 143.36-143.36v-737.28a143.36 143.36 0 0 0-143.36-143.36H143.36a143.36 143.36 0 0 0-143.36 143.36V752.64a143.36 143.36 0 0 0 143.36 143.36z m737.28-389.12v61.44a40.96 40.96 0 0 1-40.96 40.96H184.32a40.96 40.96 0 0 1-40.96-40.96v-61.44h737.28z m0-40.96H143.36v-266.24a40.96 40.96 0 0 1 40.96-40.96h655.36a40.96 40.96 0 0 1 40.96 40.96V465.92z m-219.27936-184.32h147.39456a8.192 8.192 0 0 0 7.96672-10.1376l-16.03584-65.536a8.192 8.192 0 0 0-7.96672-6.2464H645.3248a8.192 8.192 0 0 0-7.96672 10.1376l16.03584 65.536a8.192 8.192 0 0 0 7.96672 6.2464z"  horiz-adv-x="1024" />

    
    <glyph glyph-name="xingzhuang" unicode="&#58934;" d="M643.7888 228.31104c-89.78432-107.78624-182.64064-173.6704-323.3792-173.6704-140.75904 0-233.5744 86.8352-221.5936 191.56992 6.02112 68.8128 53.92384 182.62016 260.54656 164.61824 107.76576-8.94976 158.72-29.9008 248.5248-59.88352 23.9616 41.86112 41.8816 89.76384 56.832 137.66656h-395.264v38.93248h194.64192v69.05856H227.5328v44.97408h236.544V743.34208s2.92864 14.9504 20.93056 14.9504h98.83648v-116.736h251.45344v-41.86112H580.8128v-68.87424H787.456c-18.0224-77.88544-47.90272-149.7088-83.80416-209.59232 50.93376-18.00192 257.47456-80.81408 317.35808-98.816V746.2912c0 83.80416-68.8128 149.7088-149.7088 149.7088H149.79072C65.86368 896 0 827.16672 0 746.2912v-724.5824C0-62.11584 68.83328-128 149.7088-128h724.5824c83.80416 0 149.7088 68.83328 149.7088 149.7088v36.00384c-50.9952 23.8592-278.44608 122.69568-380.2112 170.5984zM140.6976 255.26272c-8.94976-38.95296 14.9504-131.80928 164.61824-131.80928 89.76384 0 179.69152 56.85248 251.45344 149.7088-101.7856 50.93376-185.67168 74.83392-281.45664 74.83392-83.7632-2.9696-125.66528-53.78048-134.61504-92.73344z"  horiz-adv-x="1024" />

    
    <glyph glyph-name="baoguo" unicode="&#58935;" d="M174.933333 682.666667h759.466667a4.266667 4.266667 0 0 1 4.266667 4.266666V806.4a4.266667 4.266667 0 0 1-4.266667 4.266667H89.6a4.266667 4.266667 0 0 1-4.266667-4.266667v-119.466667a4.266667 4.266667 0 0 1 4.266667-4.266666h85.333333z m763.648-85.248L938.666667 593.066667v-631.466667a89.6 89.6 0 0 0-89.6-89.6H174.933333A89.6 89.6 0 0 0 85.333333-38.4V593.066667c0 1.450667 0 2.901333 0.085334 4.352A89.6 89.6 0 0 0 0 686.933333V806.4C0 855.893333 40.106667 896 89.6 896h844.8c49.493333 0 89.6-40.106667 89.6-89.6v-119.466667a89.6 89.6 0 0 0-85.418667-89.514666zM849.066667 597.333333H174.933333a4.266667 4.266667 0 0 1-4.266666-4.266666v-631.466667a4.266667 4.266667 0 0 1 4.266666-4.266667h674.133334a4.266667 4.266667 0 0 1 4.266666 4.266667V593.066667a4.266667 4.266667 0 0 1-4.266666 4.266666zM345.6 426.666667a4.266667 4.266667 0 0 1-4.266667-4.266667v-76.8a4.266667 4.266667 0 0 1 4.266667-4.266667h332.8a4.266667 4.266667 0 0 1 4.266667 4.266667v76.8a4.266667 4.266667 0 0 1-4.266667 4.266667H345.6z m0 85.333333h332.8c49.493333 0 89.6-40.106667 89.6-89.6v-76.8a89.6 89.6 0 0 0-89.6-89.6H345.6A89.6 89.6 0 0 0 256 345.6v76.8C256 471.893333 296.106667 512 345.6 512z"  horiz-adv-x="1024" />

    
    <glyph glyph-name="dingdanguanli" unicode="&#58936;" d="M135.68 682.666667c-4.266667 0-7.68-3.84-7.68-8.533334v-708.266666c0-4.693333 3.413333-8.533333 7.68-8.533334h752.64c4.266667 0 7.68 3.84 7.68 8.533334V674.133333c0 4.693333-3.413333 8.533333-7.68 8.533334h-180.309333a3.84 3.84 0 0 0-3.584 2.730666L661.333333 807.936A3.84 3.84 0 0 1 657.792 810.666667H395.648c-1.706667 0-3.242667-1.28-3.712-3.114667l-30.848-121.770667C360.618667 683.946667 359.082667 682.666667 357.376 682.666667H135.68z m178.773333 148.053333C324.394667 869.333333 356.693333 896 393.472 896h267.008c33.834667 0 64.213333-22.613333 76.501333-57.002667L762.410667 768h132.864C942.805333 768 981.333333 725.973333 981.333333 674.133333v-708.266666c0-51.84-38.528-93.866667-86.058666-93.866667H128.725333C81.194667-128 42.666667-85.973333 42.666667-34.133333V674.133333C42.666667 725.973333 81.194667 768 128.725333 768H298.24l16.213333 62.72zM298.666667 362.666667a42.666667 42.666667 0 1 0 0 85.333333h426.666666a42.666667 42.666667 0 1 0 0-85.333333H298.666667z m0-213.333334a42.666667 42.666667 0 1 0 0 85.333334h426.666666a42.666667 42.666667 0 1 0 0-85.333334H298.666667z"  horiz-adv-x="1024" />

    
    <glyph glyph-name="caigou" unicode="&#58937;" d="M695.62368-5.16096a184.32 184.32 0 1 1 0 368.64 184.32 184.32 0 0 1 0-368.64z m0-81.92a266.24 266.24 0 1 0 0 532.48 266.24 266.24 0 0 0 0-532.48z m184.27904 612.59776a40.96 40.96 0 1 0-81.92 0V814.08H143.36v-821.08416h164.20864a40.96 40.96 0 0 0 0-81.92H143.36a81.92 81.92 0 0 0-81.92 81.92V814.08a81.92 81.92 0 0 0 81.92 81.92h654.62272a81.92 81.92 0 0 0 81.92-81.92v-288.5632z m-61.27616-306.46272a40.96 40.96 0 1 0 0-81.92h-121.2416a45.056 45.056 0 0 0-45.056 45.056v122.0608a40.96 40.96 0 0 0 81.92 0v-85.1968h84.3776zM265.50272 617.92256a40.96 40.96 0 0 0 0 81.92h409.6a40.96 40.96 0 1 0 0-81.92h-409.6z m0.04096-193.00352a40.96 40.96 0 1 0 0 81.92h166.5024a40.96 40.96 0 0 0 0-81.92H265.54368z"  horiz-adv-x="1024" />

    
    <glyph glyph-name="shouhoudingdan" unicode="&#58938;" d="M384 481.024c0-52.266667 30.549333-98.816 76.8-119.381333l25.6-11.392v-196.224c0-14.378667 11.477333-26.026667 25.6-26.026667 14.122667 0 25.6 11.648 25.6 26.026667V350.293333l25.6 11.392A130.346667 130.346667 0 0 1 640 481.024c0 25.984-7.509333 50.602667-20.906667 71.338667l-0.64-3.541334c-5.077333-26.154667-8.234667-40.96-11.989333-54.357333-2.730667-9.813333-5.546667-17.792-9.002667-24.704-8.832-17.493333-20.864-29.952-44.288-29.952-11.861333 0-25.685333 0-41.472 0.170667a2311.253333 2311.253333 0 0 1-39.765333 0c-24.576-0.256-36.053333 12.544-44.8 31.018666a143.402667 143.402667 0 0 0-8.32 24.32A761.045333 761.045333 0 0 0 406.4 554.666667 131.541333 131.541333 0 0 1 384 481.024z m17.066667-181.845333C338.517333 338.261333 298.666667 408.405333 298.666667 486.101333c0 79.744 41.941333 151.978667 108.330666 190.506667a43.52 43.52 0 0 0 51.626667-5.546667c6.144-5.461333 9.941333-11.349333 13.141333-18.218666 3.114667-6.784 5.546667-14.592 8.064-24.746667 3.157333-12.8 4.608-20.394667 11.306667-56.234667 3.413333-18.261333 5.76-30.293333 7.893333-39.552a3541.76 3541.76 0 0 0 27.562667-0.170666c2.218667 9.301333 4.693333 21.333333 8.106667 39.253333 6.741333 34.944 7.082667 36.608 9.685333 48.042667 5.333333 23.168 9.130667 34.816 18.773333 45.909333 13.354667 15.36 35.669333 22.272 56.746667 9.557333C684.672 635.904 725.333333 564.608 725.333333 486.101333c0-77.653333-39.850667-147.84-102.4-186.922666v-142.72C622.933333 93.610667 573.269333 42.666667 512 42.666667c-61.269333 0-110.933333 50.944-110.933333 113.792v142.72zM136.533333 810.666667a8.533333 8.533333 0 0 1-8.533333-8.533334v-836.266666c0-4.693333 3.84-8.533333 8.533333-8.533334h750.933334a8.533333 8.533333 0 0 1 8.533333 8.533334V802.133333a8.533333 8.533333 0 0 1-8.533333 8.533334H136.533333z m0 85.333333h750.933334A93.866667 93.866667 0 0 0 981.333333 802.133333v-836.266666a93.866667 93.866667 0 0 0-93.866666-93.866667H136.533333A93.866667 93.866667 0 0 0 42.666667-34.133333V802.133333A93.866667 93.866667 0 0 0 136.533333 896z"  horiz-adv-x="1024" />

    
    <glyph glyph-name="kefu1" unicode="&#58939;" d="M245.717333 336.128A149.333333 149.333333 0 0 0 0 450.176v85.333333C0 599.765333 40.533333 654.506667 97.365333 675.626667 191.146667 821.845333 332.202667 896 515.498667 896c184.96 0 326.826667-75.477333 420.693333-224.341333A149.333333 149.333333 0 0 0 1024 535.552v-85.333333a149.333333 149.333333 0 0 0-152.021333-149.333334 42.666667 42.666667 0 0 0-11.52-1.578666H756.053333a300.373333 300.373333 0 0 0-71.68-71.68c149.717333-51.413333 262.485333-167.893333 288.810667-311.210667L981.333333-128H42.666667l8.149333 44.416c26.325333 143.36 139.093333 259.797333 288.853333 311.168a300.032 300.032 0 0 0-93.952 108.544z m15.744 298.026667A298.410667 298.410667 0 0 0 512 770.218667a298.410667 298.410667 0 0 0 250.538667-136.064c17.109333 19.456 39.253333 34.432 64.341333 42.88C751.189333 766.549333 648.448 810.666667 515.498667 810.666667 381.610667 810.666667 278.357333 765.909333 202.538667 675.114667a149.632 149.632 0 0 0 58.88-40.96z m445.44-249.514667a213.333333 213.333333 0 1 1-68.949333-85.333333h-63.445333a42.666667 42.666667 0 0 0 0 85.333333h132.394666zM853.333333-42.666667c-45.141333 124.586667-182.186667 213.333333-341.333333 213.333334-159.146667 0-296.192-88.746667-341.333333-213.333334h682.666666zM149.333333 599.552a64 64 0 0 1-64-64v-85.333333a64 64 0 0 1 128 0v85.333333a64 64 0 0 1-64 64z m725.333334 0a64 64 0 0 1-64-64v-85.333333a64 64 0 1 1 128 0v85.333333a64 64 0 0 1-64 64z"  horiz-adv-x="1024" />

    
    <glyph glyph-name="didanshenqing" unicode="&#58940;" d="M899.6864 525.5168a40.96 40.96 0 1 0-81.92 0V814.08H163.14368v-821.08416h164.20864a40.96 40.96 0 1 0 0-81.92H163.14368a81.92 81.92 0 0 0-81.92 81.92V814.08a81.92 81.92 0 0 0 81.92 81.92h654.62272a81.92 81.92 0 0 0 81.92-81.92v-288.5632z m-614.4 92.40576a40.96 40.96 0 0 0 0 81.92h409.6a40.96 40.96 0 1 0 0-81.92h-409.6z m0.04096-193.00352a40.96 40.96 0 1 0 0 81.92h166.5024a40.96 40.96 0 0 0 0-81.92H285.32736z m325.14048-201.40032a163.84 163.84 0 1 0 170.3936 0.08192l63.03744-122.63424h36.0448a102.4 102.4 0 0 0 0-204.8h-368.64a102.4 102.4 0 0 0 0 204.8h36.20864l62.95552 122.55232z m79.872-23.7568l-50.74944-98.79552h112.2304l-50.7904 98.79552a166.83008 166.83008 0 0 0-10.6496 0z m-179.03616-180.71552a20.48 20.48 0 1 1 0-40.96h368.64a20.48 20.48 0 0 1 0 40.96h-368.64z m184.32 262.5536a81.92 81.92 0 1 1 0 163.84 81.92 81.92 0 0 1 0-163.84z"  horiz-adv-x="1024" />

    
    <glyph glyph-name="gouwuche1" unicode="&#58941;" d="M146.517333 700.458667h537.216a146.261333 146.261333 0 0 0 146.517334-145.962667v-389.290667a146.261333 146.261333 0 0 0-146.517334-145.92H146.517333A146.261333 146.261333 0 0 0 0 165.162667V554.496a146.261333 146.261333 0 0 0 146.517333 145.962667z m699.008 143.189333A48.725333 48.725333 0 0 0 894.208 896h80.938667C1002.154667 896 1024 874.24 1024 847.36c0-26.88-21.845333-48.64-48.853333-48.64h-28.245334l66.56-874.368A48.725333 48.725333 0 0 0 964.778667-128H183.722667c-26.965333 0-48.810667 21.76-48.810667 48.64 0 26.88 21.845333 48.64 48.810667 48.64h728.362666l-66.56 874.368z"  horiz-adv-x="1024" />

    
    <glyph glyph-name="shezhi-prs" unicode="&#58942;" d="M904.519885 77.70112l-89.9072-89.9072a41.7792 41.7792 0 0 0-59.06432 0 62.50496 62.50496 0 0 1-68.11648 13.5168l-31.5392-13.02528c-23.3472-9.70752-38.58432-32.48128-38.58432-57.7536a41.7792 41.7792 0 0 0-41.73824-41.7792h-127.13984a41.7792 41.7792 0 0 0-41.7792 41.7792c0 25.27232-15.19616 48.04608-38.54336 57.7536l-31.5392 13.06624a62.50496 62.50496 0 0 1-68.11648-13.5168 41.7792 41.7792 0 0 0-59.06432 0l-89.9072 89.86624a41.7792 41.7792 0 0 0 0 59.06432 62.50496 62.50496 0 0 1 13.55776 68.11648l-13.1072 31.5392a62.50496 62.50496 0 0 1-57.71264 38.54336A41.7792 41.7792 0 0 0 20.480205 316.74368v127.13984c0 23.06048 18.67776 41.7792 41.7792 41.7792 25.23136 0 48.04608 15.1552 57.71264 38.5024l13.06624 31.5392a62.50496 62.50496 0 0 1-13.5168 68.15744 41.7792 41.7792 0 0 0 0 59.06432l89.86624 89.86624a41.7792 41.7792 0 0 0 59.06432 0 62.50496 62.50496 0 0 1 68.11648-13.5168l31.5392 13.1072c23.3472 9.6256 38.58432 32.44032 38.58432 57.71264 0 23.06048 18.67776 41.73824 41.73824 41.73824h127.13984c23.06048 0 41.7792-18.67776 41.7792-41.7792 0-25.23136 15.19616-48.04608 38.54336-57.71264l31.5392-13.1072c23.3472-9.6256 50.25792-4.3008 68.11648 13.55776a41.7792 41.7792 0 0 0 59.06432 0l89.9072-89.86624a41.7792 41.7792 0 0 0 0-59.06432 62.50496 62.50496 0 0 1-13.55776-68.11648l13.1072-31.5392c9.6256-23.3472 32.44032-38.58432 57.71264-38.58432 23.06048 0 41.73824-18.67776 41.73824-41.73824v-127.13984a41.7792 41.7792 0 0 0-41.7792-41.7792c-25.23136 0-48.04608-15.19616-57.71264-38.54336l-13.06624-31.5392a62.50496 62.50496 0 0 1 13.5168-68.11648 41.7792 41.7792 0 0 0 0-59.06432zM512.000205 169.65632a210.65728 210.65728 0 1 1 0 421.31456 210.65728 210.65728 0 0 1 0-421.31456z"  horiz-adv-x="1024" />

    
    <glyph glyph-name="shezhi-nor" unicode="&#58943;" d="M850.012583 219.76151l24.702971 59.645515a110.246073 110.246073 0 0 0 101.841089 68.050498v73.127619a110.246073 110.246073 0 0 0-101.841089 68.050498l-24.745636 59.645515c-17.065956 41.214283-7.637015 88.657639 23.892338 120.186992l-51.667181 51.709846c-31.572018-31.572018-79.015374-40.958293-120.186992-23.892338l-59.645515 24.745635a110.246073 110.246073 0 0 0-68.050498 101.84109h-73.170284c0-44.584809-26.87888-84.817799-68.050498-101.883755l-59.60285-24.70297c-41.214283-17.065956-88.657639-7.67968-120.186992 23.892338L201.548935 668.468147c31.572018-31.572018 40.958293-78.972709 23.892338-120.186992l-24.70297-59.645515a110.246073 110.246073 0 0 0-101.84109-68.050498v-73.127619c44.584809 0 84.775134-26.87888 101.84109-68.050498l24.745635-59.645515c17.065956-41.214283 7.637015-88.657639-23.892338-120.186992l51.709846-51.709846c31.529353 31.572018 78.930045 40.958293 120.186992 23.892338l59.60285-24.745635a110.246073 110.246073 0 0 0 68.050498-101.84109h73.170284c0 44.584809 26.87888 84.817799 68.050498 101.883754l59.645515 24.702971c41.171618 17.065956 88.614974 7.67968 120.186992-23.892338l51.709846 51.709846a110.288738 110.288738 0 0 0-23.892338 120.186992z m96.550644-150.948377l-93.606767-93.649431a43.518187 43.518187 0 0 0-61.52277 0 65.106621 65.106621 0 0 1-70.95171 14.122078l-32.851965-13.652765c-24.318987-10.026249-40.190325-33.790592-40.190325-60.114828A43.518187 43.518187 0 0 0 603.921503-127.957335h-132.431815a43.518187 43.518187 0 0 0-43.475522 43.518187c0 26.281572-15.828674 50.045915-40.14766 60.114828l-32.851965 13.6101a65.106621 65.106621 0 0 1-70.95171-14.079414 43.518187 43.518187 0 0 0-61.52277 0L128.847965 68.770468a43.518187 43.518187 0 0 0 0 61.52277 65.106621 65.106621 0 0 1 14.079413 70.95171l-13.6101 32.851965a65.106621 65.106621 0 0 1-60.157493 40.190325 43.518187 43.518187 0 0 0-43.432857 43.475522v132.431815c0 24.020332 19.455189 43.518187 43.475522 43.518187 26.324236 0 50.045915 15.828674 60.157493 40.14766l13.6101 32.851965a65.106621 65.106621 0 0 1-14.122078 70.95171 43.518187 43.518187 0 0 0 0 61.52277l93.649431 93.649431a43.518187 43.518187 0 0 0 61.52277 0 65.106621 65.106621 0 0 1 70.95171-14.122078l32.851965 13.652765c24.318987 10.026249 40.147661 33.790592 40.14766 60.114828 0 24.020332 19.497854 43.475522 43.518187 43.475522h132.431815c24.020332 0 43.475522-19.455189 43.475522-43.518187 0-26.281572 15.871339-50.045915 40.190326-60.114828l32.851964-13.6101c24.318987-10.068914 52.307154-4.522478 70.95171 14.079414a43.518187 43.518187 0 0 0 61.52277 0l93.606767-93.606767a43.518187 43.518187 0 0 0 0-61.52277 65.106621 65.106621 0 0 1-14.079414-70.95171l13.6101-32.851965c10.068914-24.318987 33.790592-40.190325 60.157493-40.190325 23.977668 0 43.475522-19.455189 43.475522-43.475522v-132.431815a43.518187 43.518187 0 0 0-43.518187-43.518187c-26.324236 0-50.045915-15.828674-60.157493-40.14766l-13.567435-32.851965a65.106621 65.106621 0 0 1 14.079414-70.95171 43.518187 43.518187 0 0 0 0-61.52277z m-408.814967 95.782676a219.425524 219.425524 0 1 0 0 438.851047 219.425524 219.425524 0 0 0 0-438.851047z m0 87.761676a131.663847 131.663847 0 1 1 0 263.327695 131.663847 131.663847 0 0 1 0-263.327695z"  horiz-adv-x="1066" />

    
    <glyph glyph-name="caiwu-prs" unicode="&#58944;" d="M853.333333 725.333333H256a42.666667 42.666667 0 1 1 0-85.333333h715.52c6.314667-16.469333 9.813333-34.56 9.813333-53.333333v-576c0-75.52-56.106667-138.666667-128-138.666667H183.552C105.472-128 42.666667-66.56 42.666667 8.533333V759.466667C42.666667 834.56 105.429333 896 183.552 896h528.768C799.146667 893.866667 853.333333 832.213333 853.333333 725.333333z m-282.197333-325.888l102.272 102.272a31.018667 31.018667 0 0 1-43.861333 43.861334L512 428.074667 394.410667 545.578667A31.018667 31.018667 0 1 1 350.549333 501.76l102.314667-102.272H372.352a31.018667 31.018667 0 0 1 0-62.037333h109.568v-62.037334H372.352a31.018667 31.018667 0 0 1 0-62.037333h109.568v-123.861333a31.018667 31.018667 0 0 1 62.037333 0V213.333333h107.690667a31.018667 31.018667 0 0 1 0 62.037334h-107.690667v62.037333h107.690667a31.018667 31.018667 0 1 1 0 62.037333h-80.512z"  horiz-adv-x="1024" />

    
    <glyph glyph-name="caiwu-nor" unicode="&#58945;" d="M711.210667-128H183.552C105.472-128 42.666667-66.56 42.666667 8.533333V759.466667C42.666667 834.56 105.429333 896 183.552 896h528.768C799.146667 893.866667 853.333333 832.213333 853.333333 725.333333c71.893333 0 128-63.146667 128-138.666666v-576c0-75.52-56.106667-138.666667-128-138.666667h-142.122666z m52.181333 853.333333c0 63.274667-18.645333 84.522667-52.181333 85.333334H183.552c-27.818667 0-50.944-22.613333-50.944-51.2v-750.933334c0-28.586667 23.125333-51.2 50.944-51.2H853.333333c22.357333 0 42.666667 22.826667 42.666667 53.333334V586.666667C896 617.173333 875.690667 640 853.333333 640H256a42.666667 42.666667 0 1 0 0 85.333333h507.392z m-192.256-325.888h80.512a31.018667 31.018667 0 0 0 0-62.037333h-107.690667v-62.037333h107.690667a31.018667 31.018667 0 0 0 0-62.037334h-107.690667v-123.861333a31.018667 31.018667 0 0 0-62.037333 0V213.333333H372.352a31.018667 31.018667 0 0 0 0 62.037334h109.568v62.037333H372.352a31.018667 31.018667 0 1 0 0 62.037333h80.512L350.549333 501.76a31.018667 31.018667 0 0 0 43.861334 43.861333L512 428.074667l117.546667 117.504a31.018667 31.018667 0 1 0 43.861333-43.861334l-102.272-102.272z"  horiz-adv-x="1024" />

    
    <glyph glyph-name="lianjie" unicode="&#58946;" d="M862.268018 410.039291a48.282914 48.282914 0 1 0-68.329707 68.329708L929.829976 614.218011a48.282914 48.282914 0 0 1 0 68.329708l-102.494561 102.451908a48.282914 48.282914 0 0 1-68.287055 0l-341.563231-341.563231a48.282914 48.282914 0 0 1 0-68.287055l33.311799-33.311799a48.282914 48.282914 0 1 0-68.287055-68.329707l-33.354452 33.311798a144.891396 144.891396 0 0 0 0 204.94647L690.718653 853.329335a144.891396 144.891396 0 0 0 204.94647 0l102.451908-102.451909a144.891396 144.891396 0 0 0 0-204.946469l-135.849013-135.891666z m-667.089028-52.206967a48.282914 48.282914 0 1 0 68.329707-68.329708l-135.849013-135.849012a48.282914 48.282914 0 0 1 0-68.329708l102.451909-102.451908c18.895169-18.895169 49.477191-18.895169 68.329707 0l341.563232 341.563232a48.282914 48.282914 0 0 1 0 68.287054l-33.311799 33.311799a48.282914 48.282914 0 0 0 68.287055 68.329707l33.311799-33.311798a144.891396 144.891396 0 0 0 0-204.94647L366.81366-85.457719a144.891396 144.891396 0 0 0-204.946469 0l-102.451909 102.451908a144.891396 144.891396 0 0 0 0 204.94647l135.849013 135.891665z"  horiz-adv-x="1066" />

    
    <glyph glyph-name="gengduo" unicode="&#58947;" d="M524.501333 725.333333a85.333333 85.333333 0 1 0 0 170.666667 85.333333 85.333333 0 0 0 0-170.666667z m0-853.333333a85.333333 85.333333 0 1 0 0 170.666667 85.333333 85.333333 0 0 0 0-170.666667z m0 426.666667a85.333333 85.333333 0 1 0 0 170.666666 85.333333 85.333333 0 0 0 0-170.666666z"  horiz-adv-x="1024" />

    
    <glyph glyph-name="dingdan-prs" unicode="&#58948;" d="M165.802667 896h692.394666a117.034667 117.034667 0 0 0 117.034667-117.034667v-789.930666A117.034667 117.034667 0 0 0 858.197333-128H165.802667a117.034667 117.034667 0 0 0-117.034667 117.034667V778.965333A117.034667 117.034667 0 0 0 165.802667 896z m77.994666-341.333333h480.341334a48.768 48.768 0 0 1 0 97.536H243.797333a48.768 48.768 0 0 1 0-97.536z m0-195.029334h292.565334a48.768 48.768 0 0 1 0 97.493334H243.797333a48.768 48.768 0 0 1 0-97.493334z"  horiz-adv-x="1024" />

    
    <glyph glyph-name="dingdan-nor" unicode="&#58949;" d="M165.802667 798.4639999999999a19.498667 19.498667 0 0 1-19.498667-19.498667v-789.930666c0-10.794667 8.704-19.498667 19.498667-19.498667h692.394666a19.498667 19.498667 0 0 1 19.498667 19.498667V778.965333a19.498667 19.498667 0 0 1-19.498667 19.498667H165.802667z m0 97.536h692.394666a117.034667 117.034667 0 0 0 117.034667-117.034667v-789.930666A117.034667 117.034667 0 0 0 858.197333-128H165.802667a117.034667 117.034667 0 0 0-117.034667 117.034667V778.965333A117.034667 117.034667 0 0 0 165.802667 896z m77.994666-341.333333a48.768 48.768 0 1 0 0 97.536h480.341334a48.768 48.768 0 0 0 0-97.536H243.797333z m0-195.029334a48.768 48.768 0 0 0 0 97.493334h292.565334a48.768 48.768 0 0 0 0-97.493334H243.797333z"  horiz-adv-x="1024" />

    
    <glyph glyph-name="jiagou" unicode="&#58950;" d="M448 448V832a64 64 0 1 0 128 0v-384h384a64 64 0 1 0 0-128H576v-384a64 64 0 1 0-128 0V320H64a64 64 0 1 0 0 128h384z"  horiz-adv-x="1024" />

    
    <glyph glyph-name="shoucang" unicode="&#58951;" d="M978.944 565.381565l-2.226087 8.459131 1.202087 8.637217c1.024 7.969391 1.602783 16.027826 1.602783 24.130783 0 109.746087-98.838261 200.347826-222.608696 200.347826-76.399304 0-145.808696-34.860522-186.590609-91.091479l-36.062608-49.68626-36.018087 49.68626C457.46087 772.096 388.051478 806.956522 311.696696 806.956522c-123.770435 0-222.608696-90.601739-222.608696-200.347826 0-6.856348 0.356174-13.712696 1.113043-20.48l0.801392-6.989913-1.424696-6.90087a25.644522 25.644522 0 0 1-0.489739-5.209043c0-146.521043 146.120348-346.067478 442.10087-591.471305C837.676522 261.565217 986.957913 463.248696 979.300174 563.689739a9.883826 9.883826 0 0 1-0.311652 1.691826z m89.043478 5.075478c10.685217-139.486609-148.034783-353.858783-476.026435-659.99026a89.043478 89.043478 0 0 0-117.537391-3.428174C159.343304 168.069565 0 385.78087 0 566.984348c0 5.253565 0.311652 10.462609 1.024 15.582609A272.161391 272.161391 0 0 0 0.044522 606.608696c0 160.723478 140.332522 289.391304 311.652174 289.391304 85.170087 0 164.819478-32.055652 222.608695-86.817391C592.050087 863.944348 671.699478 896 756.914087 896c171.27513 0 311.652174-128.667826 311.652174-289.391304 0-9.438609-0.489739-18.832696-1.469218-28.182261 0.445217-2.671304 0.712348-5.342609 0.890435-8.013913z"  horiz-adv-x="1069" />

    
    <glyph glyph-name="fabu-prs" unicode="&#58952;" d="M93.868691 302.082799a93.857594 93.857594 0 0 0-40.956041 178.329428L889.183811 886.559633a93.772269 93.772269 0 0 0 125.385213-43.515794c12.500125-25.810838 12.542788-55.887931 0.085325-81.741432l-402.435765-836.057847a93.772269 93.772269 0 0 0-178.329428 40.78539v336.052849h-340.020465z"  horiz-adv-x="1024" />

    
    <glyph glyph-name="liuliangbi-prs" unicode="&#58953;" d="M512-128c-282.752 0-512 229.248-512 512s229.248 512 512 512 512-229.248 512-512-229.248-512-512-512z m-42.538667 555.818667v-212.992a42.666667 42.666667 0 1 1 85.333334 0v212.992a42.666667 42.666667 0 1 1-85.333334 0zM682.965333 512v-297.173333a42.666667 42.666667 0 0 1 85.333334 0V512a42.666667 42.666667 0 1 1-85.333334 0zM256 342.485333v-127.658666a42.666667 42.666667 0 1 1 85.333333 0v127.658666a42.666667 42.666667 0 1 1-85.333333 0z"  horiz-adv-x="1025" />

    
    <glyph glyph-name="duihuan" unicode="&#58954;" d="M826.918276 617.967012a43.052953 43.052953 0 0 0 5.370962 0.38364h32.822549l-236.279723 201.624227A42.626686 42.626686 0 1 0 684.161503 884.852695l324.218577-276.732448c30.137067-25.703892 11.935472-75.022968-27.66472-75.022968h-61.425055a43.052953 43.052953 0 0 0-5.669349-0.38364L42.843006 533.097279a42.626686 42.626686 0 0 0 0 85.253373l784.07527-0.341014zM197.023731 149.755488a43.052953 43.052953 0 0 0-5.669349-0.341013h-32.822549l236.279723-201.624227a42.626686 42.626686 0 0 0-55.329439-64.877816L15.26354 159.559626c-30.137067 25.703892-11.935472 75.022968 27.66472 75.022968h61.425055a43.052953 43.052953 0 0 0 5.669349 0.426267H980.630107a42.626686 42.626686 0 1 0 0-85.253373H197.023731z"  horiz-adv-x="1024" />

    
    <glyph glyph-name="liuliang" unicode="&#58955;" d="M552.172184 679.110043L407.985223 317.204183a48.761231 48.761231 0 0 0-45.299184-30.719575H48.956276a48.761231 48.761231 0 1 0 0 97.522462H329.625924l181.879393 456.648932c16.920147 42.422271 77.62788 40.423061 91.671115-2.974435l239.515169-737.562386 57.050641 237.028346a48.761231 48.761231 0 0 0 47.444678 37.351103h272.429a48.761231 48.761231 0 0 0 0-97.522463h-234.053911l-88.501635-367.659684c-11.507651-47.786007-78.554344-50.419113-93.767848-3.608331l-251.120342 773.401891z"  horiz-adv-x="1268" />

    
    <glyph glyph-name="tixian" unicode="&#58956;" d="M128.170667 469.333333V682.666667h768v-213.333334a42.666667 42.666667 0 0 1 42.666666 42.666667V768a42.666667 42.666667 0 0 1-42.666666 42.666667h-768a42.666667 42.666667 0 0 1-42.666667-42.666667v-256a42.666667 42.666667 0 0 1 42.666667-42.666667z m0-85.333333a128 128 0 0 0-128 128V768a128 128 0 0 0 128 128h768a128 128 0 0 0 128-128v-256a128 128 0 0 0-128-128v-384a128 128 0 0 0-128-128h-512a128 128 0 0 0-128 128v384z m85.333333 213.333333v-597.333333a42.666667 42.666667 0 0 1 42.666667-42.666667h512a42.666667 42.666667 0 0 1 42.666666 42.666667V597.333333h-597.333333z m128-128h78.848l93.781333-183.381333L607.914667 469.333333h78.848l-116.48-209.664h79.445333v-37.034666h-100.352l-0.597333-0.597334V170.666667h100.949333v-37.034667h-100.949333v-90.794667h-69.290667v90.794667H379.136V170.666667h100.352v51.370666l-0.597333 0.597334H379.136v37.034666h78.848L341.504 469.333333z"  horiz-adv-x="1066" />

    
    <glyph glyph-name="liuliangbi-nor" unicode="&#58957;" d="M512-42.666667c235.648 0 426.666667 191.018667 426.666667 426.666667s-191.018667 426.666667-426.666667 426.666667-426.666667-191.018667-426.666667-426.666667 191.018667-426.666667 426.666667-426.666667z m0-85.333333c-282.752 0-512 229.248-512 512s229.248 512 512 512 512-229.248 512-512-229.248-512-512-512z m-42.538667 555.818667a42.666667 42.666667 0 1 0 85.333334 0v-212.992a42.666667 42.666667 0 1 0-85.333334 0v212.992zM682.965333 512a42.666667 42.666667 0 0 0 85.333334 0v-297.173333a42.666667 42.666667 0 1 0-85.333334 0V512zM256 342.485333a42.666667 42.666667 0 1 0 85.333333 0v-127.658666a42.666667 42.666667 0 1 0-85.333333 0v127.658666z"  horiz-adv-x="1025" />

    
    <glyph glyph-name="guanzhu" unicode="&#58958;" d="M465.81376 81.109333a99.285333 99.285333 0 0 0 92.416 0l208.853333-109.781333-39.893333 232.533333c-5.546667 32.213333 5.12 65.109333 28.586667 87.893334l168.96 164.693333-233.514667 33.962667a99.285333 99.285333 0 0 0-74.794667 54.314666l-104.405333 211.626667-104.448-211.626667a99.285333 99.285333 0 0 0-74.752-54.314666l-233.514667-33.92 168.96-164.693334c23.424-22.826667 34.133333-55.722667 28.586667-87.893333l-39.893333-232.576 208.853333 109.781333zM303.168427-116.565333a99.285333 99.285333 0 0 0-144.085334 104.661333l39.893334 232.533333-168.96 164.736a99.285333 99.285333 0 0 0 55.04 169.386667l233.472 33.92 104.448 211.626667a99.285333 99.285333 0 0 0 178.090666 0l104.405334-211.626667 233.514666-33.92a99.285333 99.285333 0 0 0 55.04-169.386667l-168.96-164.693333 39.893334-232.533333a99.285333 99.285333 0 0 0-144.085334-104.704l-208.853333 109.781333-208.853333-109.781333z"  horiz-adv-x="1025" />

    
    <glyph glyph-name="fabu-nor" unicode="&#58959;" d="M90.199717 403.61965a8.532509 8.532509 0 0 1 3.711641-16.211766h403.971616a21.331271 21.331271 0 0 0 21.331271-21.331271v-400.089325a8.532509 8.532509 0 0 1 16.211766-3.711641L937.819113 798.333494a8.532509 8.532509 0 0 1-11.390898 11.348237L90.199717 403.61965z m3.711641-101.536851a93.857594 93.857594 0 0 0-40.956041 178.329428L889.226477 886.559633a93.772269 93.772269 0 0 0 125.385213-43.515794c12.500125-25.810838 12.542788-55.887931 0.085325-81.741432l-402.435764-836.057847a93.772269 93.772269 0 0 0-178.329428 40.78539v336.052849h-340.020465z"  horiz-adv-x="1024" />

    
    <glyph glyph-name="zhibo" unicode="&#58960;" d="M1149.632 291.84V704a64 64 0 0 1-64 64h-832a64 64 0 0 1-64-64v-640a64 64 0 0 1 64-64h832a64 64 0 0 1 64 64V291.84z m128 293.888l256 116.736c35.328 8.192 64-17.088 64-56.512v-523.776c0-39.488-33.28-65.408-64-56.576l-256 135.808V64a192 192 0 0 0-192-192h-832a192 192 0 0 0-192 192V704a192 192 0 0 0 192 192h832a192 192 0 0 0 192-192v-118.272z m0-140.672v-98.752l192-101.824V532.608l-192-87.552z"  horiz-adv-x="1600" />

    
    <glyph glyph-name="tianmaolianjie" unicode="&#58961;" d="M170.666667 896h682.666666a170.666667 170.666667 0 0 0 170.666667-170.666667v-682.666666a170.666667 170.666667 0 0 0-170.666667-170.666667H170.666667a170.666667 170.666667 0 0 0-170.666667 170.666667V725.333333a170.666667 170.666667 0 0 0 170.666667 170.666667z m426.666666-341.333333h256V682.666667H213.333333v-128h256v-469.333334h128V554.666667z"  horiz-adv-x="1024" />

    
    <glyph glyph-name="taobaolianjie" unicode="&#58962;" d="M170.666667 896h682.666666a170.666667 170.666667 0 0 0 170.666667-170.666667v-682.666666a170.666667 170.666667 0 0 0-170.666667-170.666667H170.666667a170.666667 170.666667 0 0 0-170.666667 170.666667V725.333333a170.666667 170.666667 0 0 0 170.666667 170.666667z m82.773333-414.165333c-15.189333 11.349333-30.378667 22.741333-45.610667 37.888l-45.610666-68.224 3.84-3.797334c26.581333-15.146667 53.205333-34.090667 75.989333-49.237333 7.594667-3.797333 15.232-11.392 22.826667-18.944 11.392-15.189333 15.189333-30.293333 7.594666-49.28-3.797333-7.594667-7.594667-18.944-15.189333-26.538667-19.029333-22.698667-38.016-49.237333-60.842667-71.978666-22.826667-22.741333-45.653333-45.482667-68.437333-72.021334l102.656-68.181333c0 3.797333 0 3.797333 3.797333 3.797333 19.029333 45.44 41.813333 87.125333 60.842667 132.608 15.189333 37.888 30.421333 75.776 34.218667 117.461334 3.797333 26.538667 0 56.874667-19.029334 75.818666-15.189333 22.741333-34.218667 41.685333-57.002666 60.586667z m60.842667 83.370666c11.434667 15.146667 19.029333 30.293333 15.232 49.237334-3.84 34.133333-34.218667 56.874667-60.842667 56.874666-22.826667 0-38.016-3.84-53.205333-18.986666-26.624-22.698667-26.624-60.586667-3.84-87.125334 26.624-30.293333 76.074667-26.538667 102.656 0z m570.325333-49.28c-3.84 45.482667-26.624 75.776-64.64 98.56-11.434667 7.552-22.826667 11.349333-34.218667 15.146667-49.450667 15.146667-102.656 15.146667-152.106666 11.349333a985.6 985.6 0 0 1-152.064-34.133333h-7.594667c7.594667 15.189333 15.189333 30.336 22.826667 49.28L401.749333 682.666667c-11.392-34.133333-26.624-72.021333-41.813333-102.314667-19.029333-34.133333-38.016-64.426667-64.64-90.965333 3.797333 0 3.797333-3.754667 3.797333-3.754667l57.045334-34.133333s3.797333 0 7.594666 3.84c11.392 11.306667 18.986667 18.901333 26.624 30.293333 11.392 18.944 30.378667 30.293333 49.408 37.888 3.797333 0 7.594667 3.797333 15.189334 3.797333-22.784-41.685333-45.610667-79.616-76.032-113.706666l41.813333-37.888h-41.813333v-49.28H512v-117.461334c-7.594667 0-15.189333 0-22.826667 3.797334-22.784 3.797333-30.421333 15.146667-34.218666 37.888v15.146666c0 11.392 0 22.741333 3.84 34.133334h-91.306667c-3.754667 0-7.552 0-7.552-7.594667v-60.629333c7.594667-49.28 37.973333-79.573333 87.466667-83.370667 34.176 0 68.394667 0 102.613333 3.797333 49.450667 7.552 95.061333 22.741333 133.077333 53.034667h3.797334l15.189333-49.237333c26.624 11.349333 49.450667 22.698667 76.074667 34.090666l-49.450667 128.853334-64.64-18.944c3.84-15.189333 7.637333-26.538667 11.434667-41.685334v-3.84c-15.232-11.349333-34.218667-18.901333-49.450667-26.453333V330.24h129.28v49.28h-129.28v60.586667h129.28V489.386667h-231.936c11.434667 18.944 26.624 34.133333 34.218667 53.077333l-37.973334 11.349333c3.754667 0 3.754667 0 3.754667 3.84 34.218667 11.349333 68.437333 22.698667 106.453333 30.293334 30.421333 7.552 60.842667 11.349333 91.264 3.754666 41.813333-7.552 64.64-34.090667 68.437334-75.776v-299.349333c0-30.293333-7.594667-56.874667-34.218667-72.021333-19.029333-11.349333-41.813333-15.146667-64.64-11.349334-18.986667 3.797333-34.218667 7.552-53.205333 11.349334-3.84-18.944-7.637333-37.888-15.232-56.832 15.232-3.797333 30.421333-7.594667 49.450666-7.594667 37.973333-3.797333 76.032-7.552 114.048 3.84 53.205333 15.104 91.221333 49.237333 102.656 106.069333 3.797333 22.741333 7.594667 45.482667 7.594667 68.224 0 87.125333-3.84 174.293333-11.392 257.706667zM512 379.52H420.736l3.84 3.797333c18.986667 18.944 34.176 37.888 49.408 53.034667 3.797333 3.797333 7.594667 3.797333 7.594667 3.797333h26.624v-60.629333H512z"  horiz-adv-x="1024" />

    
    <glyph glyph-name="jinhangshi" unicode="&#58963;" d="M512-128C229.248-128 0 101.248 0 384S229.248 896 512 896s512-229.248 512-512-229.248-512-512-512z m0 85.333333c235.648 0 426.666667 191.018667 426.666667 426.666667S747.648 810.666667 512 810.666667 85.333333 619.648 85.333333 384s191.018667-426.666667 426.666667-426.666667z m275.072 336.384a42.666667 42.666667 0 0 0-38.272-76.288l-256.128 128.554667a42.666667 42.666667 0 0 0-23.509333 38.144V682.666667a42.666667 42.666667 0 0 0 85.333333 0v-272.213334l232.576-116.736z"  horiz-adv-x="1024" />

    
    <glyph glyph-name="tuichu" unicode="&#58964;" d="M871.679637 748.373395a42.666649 42.666649 0 0 0-59.946642-60.714642A425.087823 425.087823 0 0 1 511.999787 810.666702C276.351885 810.666702 85.333298 619.648115 85.333298 384.000213s191.018587-426.666489 426.666489-426.666489a425.386489 425.386489 0 0 1 314.794535 138.666609 42.666649 42.666649 0 1 0 62.975974-57.599976A510.677121 510.677121 0 0 0 511.999787-127.999573C229.247904-127.999573 0 101.248331 0 384.000213S229.247904 896 511.999787 896c136.447943 0 264.533223-53.674644 359.67985-147.626605zM426.666489 341.333564a42.666649 42.666649 0 0 0 0 85.333298h554.666435a42.666649 42.666649 0 0 0 0-85.333298H426.666489z"  horiz-adv-x="1024" />

    
    <glyph glyph-name="jinbi" unicode="&#58965;" d="M512 384m-443.733333 0a443.733333 443.733333 0 1 1 887.466666 0 443.733333 443.733333 0 1 1-887.466666 0ZM512-93.866667a477.866667 477.866667 0 1 0 0 955.733334 477.866667 477.866667 0 0 0 0-955.733334z m0 68.266667a409.6 409.6 0 1 1 0 819.2 409.6 409.6 0 0 1 0-819.2zM472.337067 254.429867h-102.4V299.349333h102.4V345.088l-9.352534 18.295467H370.005333v45.056h70.997334L331.639467 630.9888h73.728l99.669333-215.6544 99.669333 215.722667H678.570667L569.344 408.302933h70.997333v-44.987733H547.362133l-9.352533-18.295467v-45.738666H640.341333v-44.919467h-102.4V145.066667H472.405333z"  horiz-adv-x="1024" />

    
    <glyph glyph-name="xianghuzhuanzhang" unicode="&#58966;" d="M143.36 896h737.28a143.36 143.36 0 0 0 143.36-143.36v-737.28a143.36 143.36 0 0 0-143.36-143.36H143.36a143.36 143.36 0 0 0-143.36 143.36V752.64a143.36 143.36 0 0 0 143.36 143.36z m471.04-213.1968V711.68a40.96 40.96 0 0 1-40.96 40.96H163.84a40.96 40.96 0 0 1-40.96-40.96v-28.8768h491.52z m0-27.91424H122.88V486.4a40.96 40.96 0 0 1 40.96-40.96h409.6a40.96 40.96 0 0 1 40.96 40.96v168.48896zM470.528 527.36h92.75392a8.192 8.192 0 0 0 7.9872-9.9328l-9.78944-45.056a8.192 8.192 0 0 0-8.00768-6.4512h-92.75392a8.192 8.192 0 0 0-7.9872 9.9328l9.78944 45.056a8.192 8.192 0 0 0 8.00768 6.4512zM921.6 232.2432V261.12a40.96 40.96 0 0 1-40.96 40.96H471.04a40.96 40.96 0 0 1-40.96-40.96v-28.8768h491.52z m0-27.91424H430.08V35.84a40.96 40.96 0 0 1 40.96-40.96h409.6a40.96 40.96 0 0 1 40.96 40.96v168.48896zM777.728 76.8h92.75392a8.192 8.192 0 0 0 7.9872-9.9328l-9.78944-45.056a8.192 8.192 0 0 0-8.00768-6.4512h-92.75392a8.192 8.192 0 0 0-7.9872 9.9328l9.78944 45.056a8.192 8.192 0 0 0 8.00768 6.4512z m-425.32864 75.61216l-28.99968-16.97792a20.48 20.48 0 0 1 20.6848-35.34848l69.95968 40.96a20.48 20.48 0 0 1 8.13056 26.50112l-39.15776 81.92a20.48 20.48 0 1 1-36.94592-17.65376l19.29216-40.38656A235.66336 235.66336 0 0 0 225.28 406.8352h-0.14336a20.48 20.48 0 0 1-40.67328 0H184.32a279.98208 279.98208 0 0 1 0-3.23584 276.62336 276.62336 0 0 1 168.07936-251.1872z m348.38528 463.17568l28.99968 16.97792a20.48 20.48 0 1 1-20.6848 35.34848l-69.98016-40.96a20.48 20.48 0 0 1-8.13056-26.50112l39.15776-81.92a20.48 20.48 0 1 1 36.9664 17.65376l-19.31264 40.38656a235.66336 235.66336 0 0 0 140.0832-215.40864h0.14336a20.48 20.48 0 0 1 40.69376 0h0.14336a279.98208 279.98208 0 0 1-0.02048 3.23584 276.62336 276.62336 0 0 1-168.05888 251.1872z"  horiz-adv-x="1024" />

    
    <glyph glyph-name="dingdanguanli1" unicode="&#58968;" d="M688.399059 565.669647H549.647059V727.009882l-334.878118-4.818823V158.117647h473.660235V565.669647zM124.385882 115.952941V763.783529a48.188235 48.188235 0 0 0 47.525647 48.188236l400.835765 5.722353a48.188235 48.188235 0 0 0 36.74353-16.173177l157.123764-177.091765c7.830588-8.824471 12.137412-20.208941 12.137412-32.015058V115.952941a48.188235 48.188235 0 0 0-48.188235-48.188235H172.574118a48.188235 48.188235 0 0 0-48.188236 48.188235z m193.626353 452.517647a21.082353 21.082353 0 0 0 0 42.164706h120.470589a21.082353 21.082353 0 1 0 0-42.164706h-120.470589z m0.090353-127.819294a21.082353 21.082353 0 1 0 0 42.164706h243.109647a21.082353 21.082353 0 0 0 0-42.164706h-243.109647z m0.180706-132.608a21.082353 21.082353 0 0 0 0 42.164706h243.07953a21.082353 21.082353 0 1 0 0-42.164706h-243.07953z"  horiz-adv-x="1531" />

    
    <glyph glyph-name="guanjia" unicode="&#58969;" d="M385.494819 394.450824c9.984 14.607059 30.268235 24.636235 53.669647 24.636235 33.28 0 60.235294-20.224 60.235294-45.176471s-26.955294-45.176471-60.235294-45.17647c-25.720471 0-47.676235 12.092235-56.32 29.108706-23.401412 3.689412-71.815529 23.386353-90.127059 23.386352-21.067294 0 95.081412-95.111529 154.051765-96.587294 58.970353-1.490824 158.72 64.722824 192.135529 156.506353A297.411765 297.411765 0 0 1 649.987995 478.524235V549.647059v0.240941a83.440941 83.440941 0 0 1-15.420235 28.762353c-42.315294 13.869176-77.613176 24.289882-105.893647 31.232v-15.058824c-58.127059-4.096-116.961882 29.033412-176.51953 99.388236 0-71.228235-34.635294-119.416471-103.875764-144.564706a85.684706 85.684706 0 0 1-4.879059-11.65553v-59.181176c3.282824-11.956706 8.387765-24.515765 15.314823-37.662118 20.781176-39.454118 63.051294-55.009882 126.795295-46.697411z m291.930353 29.364705C631.074113 312.726588 505.92023 248.470588 446.693878 248.470588c-59.105882 0-183.838118 65.551059-230.415059 175.555765A60.235294 60.235294 0 0 0 122.929172 474.352941v75.294118c0 22.287059 12.107294 41.758118 30.117647 52.178823V624.941176c0 133.074824 107.866353 240.941176 240.941176 240.941177h90.352941c133.074824 0 240.941176-107.866353 240.941177-240.941177v-16.956235c25.976471-6.686118 45.176471-30.268235 45.17647-58.337882v-75.294118a60.235294 60.235294 0 0 0-93.033411-50.522353z m8.704 181.052236a59.783529 59.783529 0 0 0 9.035294 3.117176V624.941176c0 116.434824-94.388706 210.823529-210.82353 210.82353h-90.352941c-116.434824 0-210.823529-94.388706-210.823529-210.82353v-15.058823c8.643765 0 16.850824-1.807059 24.274823-5.089882C232.25623 721.498353 308.182819 805.647059 446.693878 805.647059c138.842353 0 214.799059-82.974118 239.435294-200.779294zM363.870348 494.381176a30.117647 30.117647 0 1 0 0 60.235295 30.117647 30.117647 0 0 0 0-60.235295z m165.647059 0a30.117647 30.117647 0 1 0 0 60.235295 30.117647 30.117647 0 0 0 0-60.235295z"  horiz-adv-x="1024" />

    
    <glyph glyph-name="lijifahuo" unicode="&#58970;" d="M278.166588 323.764706v-90.352941a30.117647 30.117647 0 0 1 30.117647-30.117647h56.922353a120.530824 120.530824 0 0 0 231.454118 6.565647h192.090353a120.530824 120.530824 0 0 0 229.556706 0h58.006588a30.117647 30.117647 0 0 1 30.117647 30.117647v165.857882a30.117647 30.117647 0 0 1-6.324706 18.462118l-146.371765 188.958117a30.117647 30.117647 0 0 1-23.792941 11.685647H813.176471v-210.823529a90.352941 90.352941 0 0 0-90.352942-90.352941H278.166588z m-60.235294 0H210.823529a90.352941 90.352941 0 0 0-90.352941 90.352941V745.411765a90.352941 90.352941 0 0 0 90.352941 90.352941h512a90.352941 90.352941 0 0 0 90.352942-90.352941v-60.235294h116.766117a90.352941 90.352941 0 0 0 71.408941-35.026824l146.401883-188.988235a90.352941 90.352941 0 0 0 18.913882-55.326118v-165.857882a90.352941 90.352941 0 0 0-90.352941-90.352941h-54.603294a120.500706 120.500706 0 0 0-236.363294 0h-185.283765a120.500706 120.500706 0 0 0-234.857412-6.565647h-56.922353a90.352941 90.352941 0 0 0-90.352941 90.352941v90.352941zM903.529412 112.941176a60.235294 60.235294 0 1 1 0 120.470589 60.235294 60.235294 0 0 1 0-120.470589z m-421.647059 0a60.235294 60.235294 0 1 1 0 120.470589 60.235294 60.235294 0 0 1 0-120.470589zM210.823529 775.529412a30.117647 30.117647 0 0 1-30.117647-30.117647v-331.294118a30.117647 30.117647 0 0 1 30.117647-30.117647h512a30.117647 30.117647 0 0 1 30.117647 30.117647V745.411765a30.117647 30.117647 0 0 1-30.117647 30.117647H210.823529z m629.248-209.558588a30.117647 30.117647 0 0 0 30.117647 30.117647h37.586824a30.117647 30.117647 0 0 0 24.003765-11.926589l96.195764-126.795294a30.117647 30.117647 0 0 0 6.144-18.191059v-48.820705a30.117647 30.117647 0 0 0-30.117647-30.117648h-133.812706a30.117647 30.117647 0 0 0-30.117647 30.117648V565.910588z m30.117647 0v-175.616h133.812706v48.790588l-96.225882 126.795294h-37.586824z"  horiz-adv-x="1738" />

    
    <glyph glyph-name="kuaidijiage" unicode="&#58971;" d="M446.358974 318.358974h90.978462l151.263179-162.527179V108.307692H13.128205a13.128205 13.128205 0 0 0-13.128205 13.128205v236.307693a13.128205 13.128205 0 0 0 13.128205 13.128205h420.102564a13.128205 13.128205 0 0 0 13.128205-13.128205V318.358974z m45.161026-41.012512v-121.514667h128.945231v26.518974l-94.57559 94.995693h-34.343385zM475.661128-22.974359H235.52a65.641026 65.641026 0 1 0-127.501128 0H26.25641a26.25641 26.25641 0 0 0-26.25641 26.25641v78.769231h682.666667v-78.769231a26.25641 26.25641 0 0 0-26.256411-26.25641h-53.300512a65.641026 65.641026 0 1 0-127.501129 0zM171.795692-78.060308a39.384615 39.384615 0 1 1 0 78.769231 39.384615 39.384615 0 0 1 0-78.769231z m367.589744 0a39.384615 39.384615 0 1 1 0 78.769231 39.384615 39.384615 0 0 1 0-78.769231z m198.761026 155.753026l-16.804103 49.782154A367.721026 367.721026 0 0 1 971.487179 475.897436c0 203.014564-164.575179 367.589744-367.589743 367.589743S236.307692 678.912 236.307692 475.897436c0-17.854359 1.260308-35.551179 3.780923-52.985436l-51.987692-7.509333A423.410872 423.410872 0 0 0 183.794872 475.897436C183.794872 707.925333 371.869538 896 603.897436 896s420.102564-188.074667 420.102564-420.102564c0-181.694359-116.394667-341.070769-285.879795-398.204718zM636.717949 416.216615a65.641026 65.641026 0 0 0-58.289231 117.313641l10.502564 26.860308 83.075282 228.220718a2.625641 2.625641 0 0 0 5.093744-1.181538l-27.910564-267.474052c8.927179-8.664615 15.386256-19.849846 18.274461-32.40041l126.818462-141.469538a2.625641 2.625641 0 0 0-3.098257-4.122257l-154.466461 74.253128z m30.72 71.338667c1.102769-4.726154 1.68041-9.662359 1.68041-14.70359z m-63.960616-54.088205a39.384615 39.384615 0 1 1 0 78.769231 39.384615 39.384615 0 0 1 0-78.769231z"  horiz-adv-x="1024" />

    
    <glyph glyph-name="yonghuming" unicode="&#58972;" d="M2.048 18.285714c0 79.896381 111.396571 143.701333 263.070476 198.680381 25.258667 18.310095 31.597714 46.665143 18.944 85.065143-71.777524 68.022857-107.666286 127.146667-107.666286 177.347048 0 75.288381-15.408762 154.989714 61.537524 224.841143 36.010667 37.376 79.872 56.05181 131.584 56.051809 51.712 0 100.449524-18.67581 146.188191-56.051809 50.566095-53.808762 67.31581-128.75581 50.273524-224.841143-25.551238-144.14019-102.15619-137.411048-102.156191-177.347048s-8.557714-85.089524 21.650286-85.089524C515.705905 216.966095 750.201905 115.809524 750.201905 18.285714s-143.286857-146.285714-374.076953-146.285714C145.334857-128 2.048-61.610667 2.048 18.285714zM626.590476 391.558095c5.12 5.607619 8.850286 11.946667 11.190857 18.968381 10.361905 20.23619 19.577905 46.762667 25.746286 82.651429 16.481524 96.109714 0.24381 171.056762-48.64 224.889905-24.81981 20.943238-50.517333 36.010667-77.141333 45.202285 8.094476 27.452952 23.527619 54.296381 52.224 79.774476C624.786286 878.34819 667.233524 896 717.238857 896c50.029714 0 97.182476-17.65181 141.409524-52.955429 48.932571-50.883048 65.145905-121.709714 48.664381-212.528761-24.722286-136.216381-98.840381-129.852952-98.840381-167.594667s-8.289524-80.408381 20.967619-80.408381c29.232762 0 256.073143-95.573333 256.073143-187.757714 0-75.605333-93.257143-120.198095-250.026667-133.802667-36.571429 87.649524-223.50019 169.837714-249.856 169.837714-29.257143 0-20.967619 45.129143-20.967619 85.065143 0 26.526476 32.694857 32.475429 61.927619 75.727238z"  horiz-adv-x="1097" />

    
    <glyph glyph-name="shouhouguanli" unicode="&#58967;" d="M309.344 580.928c0-81.664 47.68-154.432 120-186.56l40-17.76v-306.56c0-22.496 17.92-40.704 40-40.704s40 18.208 40 40.672v306.56l39.968 17.792c72.32 32.128 120 104.896 120 186.56 0 40.576-11.712 79.04-32.576 111.456l-1.088-5.536c-7.904-40.832-12.864-64-18.72-84.928a212.864 212.864 0 0 0-14.08-38.56c-13.792-27.424-32.544-46.848-69.152-46.848-18.56 0-40.192 0.096-64.832 0.256a3611.52 3611.52 0 0 1-62.08 0c-38.464-0.416-56.416 19.584-69.984 48.512a224.064 224.064 0 0 0-13.056 38.016c-5.504 20.8-10.144 43.36-17.984 85.088L344.32 696a205.504 205.504 0 0 1-34.976-115.072zM336 296.768c-97.76 61.056-160 170.752-160 292.128C176 713.44 241.536 826.304 345.28 886.56 373.12 902.72 404.576 896.96 425.92 877.92c9.6-8.608 15.52-17.792 20.48-28.48 4.896-10.624 8.704-22.848 12.608-38.688 4.96-20.064 7.264-31.872 17.696-87.904 5.312-28.512 8.992-47.264 12.32-61.76a5528.8 5528.8 0 0 0 43.072-0.288c3.488 14.496 7.328 33.28 12.704 61.28 10.496 54.624 11.008 57.28 15.104 75.104 8.32 36.224 14.272 54.432 29.312 71.744 20.896 24 55.744 34.784 88.64 14.976 101.216-60.96 164.8-172.352 164.8-295.04 0-121.344-62.272-231.04-160-292.096v-222.976c0-98.208-77.632-177.792-173.344-177.792C413.6-104 336-24.416 336 73.792v222.976z"  horiz-adv-x="1024" />

    
    <glyph glyph-name="didanshenqing1" unicode="&#58973;" d="M512-128C229.224296-128 0 101.224296 0 384S229.224296 896 512 896 1024 666.775704 1024 384 794.775704-128 512-128z m0 37.925926C773.840593-90.074074 986.074074 122.159407 986.074074 384S773.840593 858.074074 512 858.074074 37.925926 645.840593 37.925926 384 250.159407-90.074074 512-90.074074z m0 56.888889c-230.4 0-417.185185 186.785185-417.185185 417.185185s186.785185 417.185185 417.185185 417.185185 417.185185-186.785185 417.185185-417.185185-186.785185-417.185185-417.185185-417.185185z m-39.670519 682.666666v-349.82874a37.925926 37.925926 0 1 1 75.851852 0V649.481481a37.925926 37.925926 0 0 1-75.851852 0z m39.670519-530.962962a37.925926 37.925926 0 1 1 0 75.851851 37.925926 37.925926 0 0 1 0-75.851851z"  horiz-adv-x="1024" />

    
    <glyph glyph-name="pink-question" unicode="&#58974;" d="M0 896m113.777778 0l796.444444 0q113.777778 0 113.777778-113.777778l0-796.444444q0-113.777778-113.777778-113.777778l-796.444444 0q-113.777778 0-113.777778 113.777778l0 796.444444q0 113.777778 113.777778 113.777778ZM512 99.555556A284.444444 284.444444 0 1 0 512 668.444444a284.444444 284.444444 0 0 0 0-568.888888z m35.555556 229.376v42.439111A83.000889 83.000889 0 1 1 440.888889 450.901333a23.722667 23.722667 0 0 1 47.388444 0 35.555556 35.555556 0 1 0 35.555556-35.555555 23.722667 23.722667 0 0 1-23.665778-23.722667v-62.691555a23.722667 23.722667 0 1 1 47.388445 0z m-23.210667-95.004445a23.722667 23.722667 0 1 1 0 47.331556 23.722667 23.722667 0 0 1 0-47.388445z"  horiz-adv-x="1024" />

    
    <glyph glyph-name="pink-gg" unicode="&#58975;" d="M0 896m113.777778 0l796.444444 0q113.777778 0 113.777778-113.777778l0-796.444444q0-113.777778-113.777778-113.777778l-796.444444 0q-113.777778 0-113.777778 113.777778l0 796.444444q0 113.777778 113.777778 113.777778ZM256 554.666667h512a28.444444 28.444444 0 0 0 28.444444-28.444445v-286.606222a28.444444 28.444444 0 0 0-28.444444-28.444444h-43.008l0.227556-65.706667a22.755556 22.755556 0 0 0-34.474667-19.626667l-128.568889 77.198222a56.888889 56.888889 0 0 1-29.297778 8.135112H256a28.444444 28.444444 0 0 0-28.444444 28.444444V526.222222a28.444444 28.444444 0 0 0 28.444444 28.444445z m113.777778-205.084445a38.627556 38.627556 0 0 1 38.798222 38.456889 38.627556 38.627556 0 0 1-38.798222 38.456889 38.627556 38.627556 0 0 1-38.798222-38.456889c0-21.219556 17.351111-38.456889 38.798222-38.456889z m155.136 0a38.627556 38.627556 0 0 1 38.798222 38.456889 38.627556 38.627556 0 0 1-38.798222 38.456889 38.627556 38.627556 0 0 1-38.798222-38.456889c0-21.219556 17.408-38.456889 38.798222-38.456889z m129.308444 0a38.627556 38.627556 0 0 1 38.798222 38.456889 38.627556 38.627556 0 0 1-38.798222 38.456889 38.627556 38.627556 0 0 1-38.798222-38.456889c0-21.219556 17.351111-38.456889 38.798222-38.456889z"  horiz-adv-x="1024" />

    
    <glyph glyph-name="pingxing" unicode="&#58976;" d="M536.901818 23.505455l-250.554182-131.723637a46.545455 46.545455 0 0 0-67.490909 49.105455l47.802182 278.946909a46.545455 46.545455 0 0 1-13.358545 41.192727L50.594909 458.612364a46.545455 46.545455 0 0 0 25.786182 79.406545l280.110545 40.680727a46.545455 46.545455 0 0 1 35.048728 25.460364L516.794182 857.972364a46.545455 46.545455 0 0 0 83.502545 0l125.207273-253.812364a46.545455 46.545455 0 0 1 35.095273-25.460364l280.110545-40.680727a46.545455 46.545455 0 0 0 25.786182-79.406545l-202.705455-197.585455a46.545455 46.545455 0 0 1-13.358545-41.192727l47.848727-278.946909a46.545455 46.545455 0 0 0-67.537454-49.058909l-250.554182 131.723636a46.545455 46.545455 0 0 1-43.287273 0z"  horiz-adv-x="1117" />

    
    <glyph glyph-name="tupian" unicode="&#58977;" d="M85.333333 232.277333v-148.736l257.536 186.282667-121.173333 99.328L85.333333 232.277333z m0 120.832l103.253334 103.68a42.666667 42.666667 0 0 0 57.344 2.901334l168.448-138.069334 369.92 267.605334a42.666667 42.666667 0 0 0 60.586666-10.837334L938.666667 437.76V725.333333a85.333333 85.333333 0 0 1-85.333334 85.333334H170.666667a85.333333 85.333333 0 0 1-85.333334-85.333334v-372.224z m17.493334-362.24c15.616-20.394667 40.192-33.536 67.84-33.536h682.666666a85.333333 85.333333 0 0 1 85.333334 85.333334V284.074667L798.464 494.165333l-695.637333-503.296zM170.666667 896h682.666666a170.666667 170.666667 0 0 0 170.666667-170.666667v-682.666666a170.666667 170.666667 0 0 0-170.666667-170.666667H170.666667a170.666667 170.666667 0 0 0-170.666667 170.666667V725.333333a170.666667 170.666667 0 0 0 170.666667 170.666667z m128-341.333333a85.333333 85.333333 0 1 0 0 170.666666 85.333333 85.333333 0 0 0 0-170.666666z"  horiz-adv-x="1024" />

    
    <glyph glyph-name="chongzhiduizhang" unicode="&#58978;" d="M307.2 384a307.3024 307.3024 0 0 0-204.8-289.792V-25.6h1024V94.208a307.3024 307.3024 0 0 0 0 579.584V793.6H102.4v-119.808C221.696 631.3984 307.2 517.632 307.2 384zM0 588.8V896h1228.8v-307.2a204.8 204.8 0 0 1 0-409.6v-307.2H0V179.2a204.8 204.8 0 0 1 0 409.6z m417.4848 50.9952h94.6176L624.64 419.7376l112.5376 220.0576h94.6176L692.0192 388.1984h95.3344v-44.4416H666.9312l-0.7168-0.7168v-61.6448h121.1392v-44.4416H666.2144V128h-83.1488V236.9536H462.6432v44.4416h120.4224V343.04l-0.7168 0.7168H462.6432v44.4416h94.6176L417.4848 639.7952z"  horiz-adv-x="1228" />

    
    <glyph glyph-name="gerenzhongxin-dingdan" unicode="&#58979;" d="M938.203042 560.268842a43.091466 43.091466 0 0 0 0.341319-5.717086v-597.30745A85.329636 85.329636 0 0 0 853.300055-128H170.662969A85.329636 85.329636 0 0 0 85.333333-42.670364V810.625993a85.329636 85.329636 0 0 0 85.329636 85.329636h426.648179l3.498515-0.17066a51.112452 51.112452 0 0 0 40.872895-14.847356l281.587798-281.587798a51.197781 51.197781 0 0 0 14.932686-39.080973z m-383.98336 250.271821A40427545.889011 40427545.889011 0 0 1 170.662969 810.625993v-853.296357h682.637086V511.972268H605.417463a51.197781 51.197781 0 0 0-51.197781 51.197781V810.625993zM804.662162 597.301904L639.634647 762.329419V597.301904H804.662162zM257.699197 469.30745a42.664818 42.664818 0 0 0 0 85.329636H471.023287a42.664818 42.664818 0 0 0 0-85.329636H257.613868z m0-213.324089a42.664818 42.664818 0 0 0 0 85.329635H599.01774a42.664818 42.664818 0 0 0 0-85.329635H257.613868z"  horiz-adv-x="1024" />

    
    <glyph glyph-name="qita" unicode="&#58980;" d="M512-128A512 512 0 1 0 512 896a512 512 0 0 0 0-1024z m0 85.333333A426.666667 426.666667 0 1 1 512 810.666667a426.666667 426.666667 0 0 1 0-853.333334zM277.333333 298.666667a64 64 0 1 0 0 128 64 64 0 0 0 0-128zM512 298.666667a64 64 0 1 0 0 128A64 64 0 0 0 512 298.666667z m234.666667 0a64 64 0 1 0 0 128 64 64 0 0 0 0-128z"  horiz-adv-x="1024" />

    
    <glyph glyph-name="fuzhi" unicode="&#58981;" d="M161.46432 592.36352a40.96 40.96 0 0 1-40.96-40.96v-532.48a40.96 40.96 0 0 1 40.96-40.96h532.48a40.96 40.96 0 0 1 40.96 40.96v532.48a40.96 40.96 0 0 1-40.96 40.96h-532.48z m0 81.92h532.48a122.88 122.88 0 0 0 122.88-122.88v-532.48a122.88 122.88 0 0 0-122.88-122.88h-532.48a122.88 122.88 0 0 0-122.88 122.88v532.48a122.88 122.88 0 0 0 122.88 122.88z m163.84 80.6912a40.96 40.96 0 0 0-81.92 0v1.2288a122.88 122.88 0 0 0 122.88 122.88h532.48a122.88 122.88 0 0 0 122.88-122.88v-532.48a122.88 122.88 0 0 0-122.88-122.88 40.96 40.96 0 1 0 0 81.92 40.96 40.96 0 0 1 40.96 40.96v532.48a40.96 40.96 0 0 1-40.96 40.96h-532.48a40.96 40.96 0 0 1-40.96-40.96v-1.2288z"  horiz-adv-x="1024" />

    
    <glyph glyph-name="remen" unicode="&#58982;" d="M310.365091 343.226182c3.165091-34.164364 57.250909-165.515636 191.394909-165.515637 56.413091 0 131.072-11.543273 143.546182-82.664727 6.237091-35.746909-29.975273-124.276364-151.458909-124.276363-231.796364 0-183.389091 372.456727-183.389091 372.456727z m330.752 117.76c-99.607273 0-180.410182 131.816727-180.410182 294.260363 0 17.408 1.861818 37.515636 5.585455 60.416 4.561455 27.927273-8.564364 55.854545-32.954182 70.097455a67.490909 67.490909 0 0 1-76.8-6.050909C143.36 705.629091 40.401455 496.081455 47.662545 251.066182c6.144-208.989091 248.180364-378.600727 490.40291-378.600727 242.036364 0 438.458182 169.425455 438.458181 378.600727 0 96.628364-33.885091 199.586909-101.655272 309.248a67.770182 67.770182 0 0 1-114.967273 0.465454c-41.890909-66.466909-81.361455-99.793455-118.690909-99.793454h-0.093091z"  horiz-adv-x="1024" />

    
    <glyph glyph-name="hebingxingzhuang" unicode="&#58983;" d="M941.738667 896c45.482667 0 82.261333-36.778667 82.261333-82.261333v-859.477334a82.261333 82.261333 0 0 0-82.261333-82.261333H82.261333A82.261333 82.261333 0 0 0 0-45.738667V813.738667C0 859.221333 36.778667 896 82.261333 896h859.477334z m0-941.738667V813.738667H82.261333v-859.477334h859.477334zM406.869333 123.392a41.130667 41.130667 0 1 0 0 82.346667h356.522667a41.130667 41.130667 0 1 0 0-82.346667H406.869333z m0 438.869333a41.130667 41.130667 0 1 0 0 82.346667h356.522667a41.130667 41.130667 0 1 0 0-82.346667H406.869333z m0-219.392a41.130667 41.130667 0 1 0 0 82.261334h356.522667a41.130667 41.130667 0 1 0 0-82.261334H406.869333zM260.608 123.392a41.130667 41.130667 0 1 0 0 82.346667 41.130667 41.130667 0 0 0 0-82.346667z m0 438.869333a41.130667 41.130667 0 1 0 0 82.346667 41.130667 41.130667 0 0 0 0-82.346667z m0-219.392a41.130667 41.130667 0 1 0 0 82.261334 41.130667 41.130667 0 0 0 0-82.261334z"  horiz-adv-x="1024" />

    
    <glyph glyph-name="zhongliangcopy" unicode="&#58984;" d="M161.70934-56.52446a42.641616 42.641616 0 0 0-62.901868-57.635666L13.597382-20.97759A51.199195 51.199195 0 0 0 51.265362 64.744491h817.943718l-38.911389 29.1104a42.641616 42.641616 0 1 0 51.052912 68.314355l121.342093-90.476293a51.199195 51.199195 0 0 0-30.719517-92.231693H128.795572l32.913768-35.98572zM415.730491 768.002011l-24.648755-42.568474H261.182063L170.70577 298.651673h640.501935L720.292563 725.360396H588.27178l-24.648755 42.568474a85.283231 85.283231 0 0 1-147.965675 0zM489.676758 896c63.121294 0 118.270141-34.376603 147.74625-85.356373h82.869555c40.301081 0 75.116534-28.159557 83.454688-67.509796l90.915143-426.708723a85.356373 85.356373 0 0 0-83.381547-103.129808H170.632629a85.356373 85.356373 0 0 0-83.454689 103.129808l90.403151 426.635581c8.411296 39.42338 43.153608 67.582938 83.52783 67.582938h80.602162A170.566463 170.566463 0 0 0 489.676758 896zM341.418516 592.973905h40.22794v-75.77481l71.386306 75.77481h50.175212l-71.459449-72.190866 78.334769-110.590262h-50.467778l-55.002564 82.21128-23.039638-23.332205v-58.879075h-40.227939v182.854269zM658.341536 430.965022a60.268767 60.268767 0 0 0-50.175211-24.868181c-14.043208 0-26.623582 2.413676-37.814263 7.314171a80.894729 80.894729 0 0 0-28.2327 20.11397 88.940317 88.940317 0 0 0-17.700293 29.9881 110.443979 110.443979 0 0 0-6.143903 37.302271c0 13.677499 2.047968 26.331015 6.143903 38.033688 4.095936 11.702673 10.020414 21.942512 17.700293 30.573234 7.679879 8.777005 17.11516 15.579184 28.2327 20.479678 11.190681 4.973636 23.771055 7.460454 37.814263 7.460454 9.362139 0 18.43171-1.462834 27.208715-4.242219 8.777005-2.852527 16.822593-6.948462 23.844197-12.43409a68.021788 68.021788 0 0 0 25.965306-47.834677h-38.399397a38.472538 38.472538 0 0 1-13.823782 23.039638 40.227939 40.227939 0 0 1-24.868181 7.679879 46.883835 46.883835 0 0 1-22.966496-5.266203 43.519316 43.519316 0 0 1-15.359759-14.116349 61.731601 61.731601 0 0 1-8.630722-20.040828 99.984715 99.984715 0 0 1 0-45.713568c1.828543-7.314171 4.681069-13.750641 8.630722-19.601977a43.885025 43.885025 0 0 1 15.359759-13.896925 46.883835 46.883835 0 0 1 23.039638-5.266203c13.311791 0 23.55163 3.364519 30.792659 10.093556 7.314171 6.729037 11.483248 16.530026 12.726657 29.256683h-40.447365v29.9881h76.798793v-98.741305h-25.599597L658.341536 430.89188z"  horiz-adv-x="1102" />

    
    <glyph glyph-name="danhaocaigou" unicode="&#58985;" d="M721.334857 590.409143a35.986286 35.986286 0 1 0 50.907429-50.980572l-359.570286-360.594285-0.365714-0.438857a35.693714 35.693714 0 0 0-26.331429-11.410286 36.059429 36.059429 0 0 0-31.305143 18.212571L245.906286 375.734857a35.913143 35.913143 0 1 0 62.464 35.693714L393.801143 261.851429l327.533714 328.411428zM512 896a512 512 0 0 0 512-512 512 512 0 0 0-512-512 512 512 0 0 0-512 512 512 512 0 0 0 512 512z m311.076571-823.076571A437.979429 437.979429 0 0 1 952.027429 384c0 59.392-11.629714 117.028571-34.596572 171.300571A440.466286 440.466286 0 0 1 683.154286 789.504 437.394286 437.394286 0 0 1 512 824.027429c-59.392 0-117.028571-11.629714-171.300571-34.596572A440.466286 440.466286 0 0 1 106.496 555.154286 437.394286 437.394286 0 0 1 71.972571 384c0-59.392 11.629714-117.028571 34.596572-171.300571a440.466286 440.466286 0 0 1 234.203428-234.203429A437.394286 437.394286 0 0 1 512-56.027429c59.392 0 117.028571 11.629714 171.154286 34.596572a437.686857 437.686857 0 0 1 139.922285 94.354286z"  horiz-adv-x="1024" />

    
    <glyph glyph-name="xingzhuangcopy" unicode="&#58986;" d="M743.982545 896C418.443636 896 105.378909 689.896727 0 400.011636c105.378909-289.792 418.443636-495.988364 743.982545-495.988363 323.956364 0 640.093091 206.196364 745.472 495.988363C1382.493091 689.896727 1067.845818 896 743.982545 896z m0-805.981091a310.923636 310.923636 0 0 0-309.992727 309.992727 310.923636 310.923636 0 0 0 309.992727 309.992728 310.923636 310.923636 0 0 0 309.992728-309.992728 310.923636 310.923636 0 0 0-309.992728-309.992727z m185.995637 309.992727c0-102.306909-83.781818-185.995636-185.995637-185.995636-102.4 0-185.995636 83.781818-185.995636 185.995636 0 102.4 83.688727 185.995636 185.995636 185.995637s185.995636-83.688727 185.995637-185.995637z"  horiz-adv-x="1489" />

    
    <glyph glyph-name="hebingxingzhuangcopy" unicode="&#58987;" d="M292.022652 700.251545a598.888143 598.888143 0 0 0 252.12401 56.85216c236.940739 0 467.072836-150.743332 545.236046-362.764442-39.966728-109.891481-121.398085-203.374134-223.527715-267.851973l138.215431-138.215431a68.086419 68.086419 0 0 0-96.274197-96.342283l-172.190554 172.190554a591.670983 591.670983 0 0 0-191.459011-32.545308c-238.098208 0-467.072836 150.811419-544.146662 362.764441 33.226173 91.303888 94.572036 171.237344 172.667159 232.651295L19.949321 779.776482A68.086419 68.086419 0 0 0 116.223518 876.050679L292.090738 700.251545z m38.264568-230.812961a224.685183 224.685183 0 0 1-12.93642-75.099321 227.40864 227.40864 0 0 1 226.727776-226.727776 224.685183 224.685183 0 0 1 75.167407 12.93642L541.287033 258.302598a136.445184 136.445184 0 0 0-133.245123 133.245122L330.28722 469.438584z m82.861172 109.687221l65.635308-65.567222a134.81111 134.81111 0 0 0 65.362962 16.817346c74.826975 0 136.036666-61.209691 136.036666-136.036666 0-23.625987-6.127778-45.958333-16.885432-65.362962l65.635308-65.567222a225.161788 225.161788 0 0 1 41.941234 130.930184 227.40864 227.40864 0 0 1-226.727776 226.727776c-48.68179 0-93.959259-15.523704-130.99827-41.941234z"  horiz-adv-x="1092" />

    
    <glyph glyph-name="yaoqingma" unicode="&#58988;" d="M113.749333 686.421333V42.666667c0-31.402667 25.514667-56.917333 56.917334-56.917334h1024a56.917333 56.917333 0 0 1 56.917333 56.917334V688.469333L712.192 336.384a56.917333 56.917333 0 0 0-62.208 0L113.749333 686.421333z m1073.322667 95.829334H175.104l506.026667-330.24 506.026666 330.24zM170.666667 896h1024a170.666667 170.666667 0 0 0 170.666666-170.666667v-682.666666a170.666667 170.666667 0 0 0-170.666666-170.666667H170.666667a170.666667 170.666667 0 0 0-170.666667 170.666667V725.333333a170.666667 170.666667 0 0 0 170.666667 170.666667z"  horiz-adv-x="1365" />

    
    <glyph glyph-name="yanzhengma" unicode="&#58989;" d="M183.996632 798.450526a19.024842 19.024842 0 0 1-18.485895-19.456V-11.048421c0-10.778947 8.299789-19.456 18.485895-19.456h656.006736c10.24 0 18.485895 8.730947 18.485895 19.456V779.048421c0 10.778947-8.299789 19.456-18.485895 19.456H183.996632z m0 97.549474h656.006736c61.224421 0 110.861474-52.385684 110.861474-117.005474V-11.048421c0-64.619789-49.637053-117.005474-110.861474-117.005474H183.996632c-61.224421 0-110.861474 52.385684-110.861474 117.005474V779.048421C73.135158 843.614316 122.772211 896 183.996632 896z"  horiz-adv-x="1024" />

    
    <glyph glyph-name="shouji" unicode="&#58990;" d="M184.32 220.16h655.36V588.8H184.32v-368.64z m0-81.92v-102.4a40.96 40.96 0 0 1 40.96-40.96h573.44a40.96 40.96 0 0 1 40.96 40.96v102.4H184.32z m0 532.48h655.36v102.4a40.96 40.96 0 0 1-40.96 40.96H225.28a40.96 40.96 0 0 1-40.96-40.96v-102.4zM225.28 896h573.44A122.88 122.88 0 0 0 921.6 773.12v-737.28a122.88 122.88 0 0 0-122.88-122.88H225.28A122.88 122.88 0 0 0 102.4 35.84V773.12A122.88 122.88 0 0 0 225.28 896zM438.1696 716.8v51.2h153.6v-51.2h-153.6z m-2.6624-665.6v51.2h153.6v-51.2h-153.6z"  horiz-adv-x="1024" />

    
    <glyph glyph-name="hebingxingzhuangcopy1" unicode="&#58991;" d="M684.759642 707.222588l150.467765-150.467764 103.604706 103.604705-150.407529 150.528-103.664942-103.664941z m-60.235294-60.235294l-518.023529-518.023529-21.38353-171.309177 171.971765 20.961883 517.963294 517.903058-150.528 150.528zM317.264113-81.618824a85.112471 85.112471 0 0 0-49.874824-24.274823l-171.971764-20.961882a85.112471 85.112471 0 0 0-94.750118 95.051294l21.443765 171.369411c2.288941 18.793412 10.842353 36.261647 24.274823 49.633883L728.249525 871.062588a85.112471 85.112471 0 0 0 120.350117 0l150.467765-150.467764a85.112471 85.112471 0 0 0 0-120.410353L317.264113-81.618824z"  horiz-adv-x="1024" />

    
    <glyph glyph-name="lujing" unicode="&#58992;" d="M388.534857 178.468571l573.513143 605.549715a85.357714 85.357714 0 1 0 123.904-117.394286l-646.509714-682.642286a85.357714 85.357714 0 0 0-132.608 10.825143l-231.131429 341.357714a85.357714 85.357714 0 1 0 141.238857 95.670858L388.534857 178.468571z"  horiz-adv-x="1170" />

    
    <glyph glyph-name="liuyan" unicode="&#58993;" d="M512-128C229.21216-128 0 101.21216 0 384S229.21216 896 512 896 1024 666.78784 1024 384 794.78784-128 512-128zM245.76 322.56v-177.88928c0-4.25984 1.06496-8.51968 3.11296-12.288 7.04512-13.23008 23.92064-18.432 37.64224-11.63264L763.0848 357.376a26.4192 26.4192 0 0 1 0.24576 47.7184L286.72 647.12704A28.79488 28.79488 0 0 1 273.69472 650.24 27.4432 27.4432 0 0 1 245.76 623.32928V404.48l245.76-40.96-245.76-40.96z"  horiz-adv-x="1024" />

    
    </font>
</defs>
</svg>
